{
	"asset":{
		"version":"2.0",
		"generator":"Created using the official Cinema 4D glTF Exporter 1.000x284978"
	},
	"scenes":[{
		"nodes":[0]
	}],
	"nodes":[{
		"name":"3DXY_group_001.1",
		"children":[1,
		2,
		3,
		4,
		5,
		6,
		7,
		8,
		9,
		10,
		11,
		12,
		13,
		14]
	},
	{
		"name":"3DXY_group_001.1-3DXY_Material_16",
		"mesh":0
	},
	{
		"name":"3DXY_group_001.1-3DXY_Material_15",
		"mesh":1
	},
	{
		"name":"3DXY_group_001.1-3DXY_Material_14",
		"mesh":2
	},
	{
		"name":"3DXY_group_001.1-3DXY_Material_13",
		"mesh":3
	},
	{
		"name":"3DXY_group_001.1-3DXY_Material_12",
		"mesh":4
	},
	{
		"name":"3DXY_group_001.1-3DXY_Material_11",
		"mesh":5
	},
	{
		"name":"3DXY_group_001.1-3DXY_Material_10",
		"mesh":6
	},
	{
		"name":"3DXY_group_001.1-3DXY_Material_7",
		"mesh":7
	},
	{
		"name":"3DXY_group_001.1-3DXY_Material_6",
		"mesh":8
	},
	{
		"name":"3DXY_group_001.1-3DXY_Material_5",
		"mesh":9
	},
	{
		"name":"3DXY_group_001.1-3DXY_Material_4",
		"mesh":10
	},
	{
		"name":"3DXY_group_001.1-3DXY_Material_3",
		"mesh":11
	},
	{
		"name":"3DXY_group_001.1-3DXY_Material_2",
		"mesh":12
	},
	{
		"name":"3DXY_group_001.1-3DXY_Material_1",
		"mesh":13
	}],
	"meshes":[{
		"name":"3DXY_group_001.1-3DXY_Material_16",
		"primitives":[{
			"attributes":{
				"POSITION":1,
				"NORMAL":2
			},
			"indices":0,
			"material":0
		}]
	},
	{
		"name":"3DXY_group_001.1-3DXY_Material_15",
		"primitives":[{
			"attributes":{
				"POSITION":4,
				"NORMAL":5
			},
			"indices":3,
			"material":1
		}]
	},
	{
		"name":"3DXY_group_001.1-3DXY_Material_14",
		"primitives":[{
			"attributes":{
				"POSITION":7,
				"NORMAL":8
			},
			"indices":6,
			"material":2
		}]
	},
	{
		"name":"3DXY_group_001.1-3DXY_Material_13",
		"primitives":[{
			"attributes":{
				"POSITION":10,
				"NORMAL":11
			},
			"indices":9,
			"material":3
		}]
	},
	{
		"name":"3DXY_group_001.1-3DXY_Material_12",
		"primitives":[{
			"attributes":{
				"POSITION":13,
				"NORMAL":14
			},
			"indices":12,
			"material":4
		}]
	},
	{
		"name":"3DXY_group_001.1-3DXY_Material_11",
		"primitives":[{
			"attributes":{
				"POSITION":16,
				"NORMAL":17
			},
			"indices":15,
			"material":5
		}]
	},
	{
		"name":"3DXY_group_001.1-3DXY_Material_10",
		"primitives":[{
			"attributes":{
				"POSITION":19,
				"NORMAL":20
			},
			"indices":18,
			"material":6
		}]
	},
	{
		"name":"3DXY_group_001.1-3DXY_Material_7",
		"primitives":[{
			"attributes":{
				"POSITION":22,
				"NORMAL":23
			},
			"indices":21,
			"material":7
		}]
	},
	{
		"name":"3DXY_group_001.1-3DXY_Material_6",
		"primitives":[{
			"attributes":{
				"POSITION":25,
				"NORMAL":26
			},
			"indices":24,
			"material":8
		}]
	},
	{
		"name":"3DXY_group_001.1-3DXY_Material_5",
		"primitives":[{
			"attributes":{
				"POSITION":28,
				"NORMAL":29
			},
			"indices":27,
			"material":9
		}]
	},
	{
		"name":"3DXY_group_001.1-3DXY_Material_4",
		"primitives":[{
			"attributes":{
				"POSITION":31,
				"NORMAL":32
			},
			"indices":30,
			"material":10
		}]
	},
	{
		"name":"3DXY_group_001.1-3DXY_Material_3",
		"primitives":[{
			"attributes":{
				"POSITION":34,
				"NORMAL":35
			},
			"indices":33,
			"material":11
		}]
	},
	{
		"name":"3DXY_group_001.1-3DXY_Material_2",
		"primitives":[{
			"attributes":{
				"POSITION":37,
				"NORMAL":38
			},
			"indices":36,
			"material":12
		}]
	},
	{
		"name":"3DXY_group_001.1-3DXY_Material_1",
		"primitives":[{
			"attributes":{
				"POSITION":40,
				"NORMAL":41
			},
			"indices":39,
			"material":13
		}]
	}],
	"accessors":[{
		"bufferView":0,
		"type":"SCALAR",
		"min":[0],
		"componentType":5123,
		"count":28680,
		"byteOffset":0,
		"max":[5431]
	},
	{
		"bufferView":1,
		"type":"VEC3",
		"min":[-0.8227899074554443,
		0.07676660269498825,
		-1.5040979385375977],
		"componentType":5126,
		"count":5432,
		"byteOffset":0,
		"max":[0.8227899074554443,
		0.5283105969429016,
		1.454866886138916]
	},
	{
		"bufferView":1,
		"type":"VEC3",
		"min":[-1.0,
		-0.9957500696182251,
		-1.0],
		"componentType":5126,
		"count":5432,
		"byteOffset":12,
		"max":[1.0,
		0.9971250295639038,
		1.0]
	},
	{
		"bufferView":2,
		"type":"SCALAR",
		"min":[0],
		"componentType":5123,
		"count":8184,
		"byteOffset":0,
		"max":[1439]
	},
	{
		"bufferView":3,
		"type":"VEC3",
		"min":[-0.8252294063568115,
		-4.133695814018602e-17,
		-1.5802315473556519],
		"componentType":5126,
		"count":1440,
		"byteOffset":0,
		"max":[0.8252294063568115,
		0.6050772666931152,
		1.5310004949569703]
	},
	{
		"bufferView":3,
		"type":"VEC3",
		"min":[-0.9999063014984131,
		-0.9932500720024109,
		-0.9932500720024109],
		"componentType":5126,
		"count":1440,
		"byteOffset":12,
		"max":[0.9999063014984131,
		0.9932500720024109,
		0.9932500720024109]
	},
	{
		"bufferView":4,
		"type":"SCALAR",
		"min":[0],
		"componentType":5123,
		"count":3336,
		"byteOffset":0,
		"max":[571]
	},
	{
		"bufferView":5,
		"type":"VEC3",
		"min":[-0.7969699501991272,
		0.5765766501426697,
		-1.8504135608673096],
		"componentType":5126,
		"count":572,
		"byteOffset":0,
		"max":[0.7969699501991272,
		0.9222755432128906,
		2.0435104370117189]
	},
	{
		"bufferView":5,
		"type":"VEC3",
		"min":[-0.9956875443458557,
		-0.8812500238418579,
		-1.0],
		"componentType":5126,
		"count":572,
		"byteOffset":12,
		"max":[0.9956875443458557,
		0.9372813105583191,
		0.897687554359436]
	},
	{
		"bufferView":6,
		"type":"SCALAR",
		"min":[0],
		"componentType":5123,
		"count":864,
		"byteOffset":0,
		"max":[203]
	},
	{
		"bufferView":7,
		"type":"VEC3",
		"min":[-0.7099171280860901,
		0.7177125811576843,
		1.8016324043273926],
		"componentType":5126,
		"count":204,
		"byteOffset":0,
		"max":[0.7099171280860901,
		0.942790150642395,
		2.054708957672119]
	},
	{
		"bufferView":7,
		"type":"VEC3",
		"min":[-0.9484062790870667,
		-0.9442188143730164,
		-0.005000000353902578],
		"componentType":5126,
		"count":204,
		"byteOffset":12,
		"max":[0.9484062790870667,
		0.920468807220459,
		0.9578750729560852]
	},
	{
		"bufferView":8,
		"type":"SCALAR",
		"min":[0],
		"componentType":5123,
		"count":25668,
		"byteOffset":0,
		"max":[5620]
	},
	{
		"bufferView":9,
		"type":"VEC3",
		"min":[-0.9116818904876709,
		0.16356243193149568,
		-2.140699863433838],
		"componentType":5126,
		"count":5621,
		"byteOffset":0,
		"max":[0.9116818904876709,
		1.32144033908844,
		2.1505374908447267]
	},
	{
		"bufferView":9,
		"type":"VEC3",
		"min":[-0.9997813105583191,
		-0.9996875524520874,
		-0.9994375705718994],
		"componentType":5126,
		"count":5621,
		"byteOffset":12,
		"max":[0.9997813105583191,
		0.9993438124656677,
		0.9993438124656677]
	},
	{
		"bufferView":10,
		"type":"SCALAR",
		"min":[0],
		"componentType":5123,
		"count":240,
		"byteOffset":0,
		"max":[63]
	},
	{
		"bufferView":11,
		"type":"VEC3",
		"min":[-0.23720096051692964,
		0.38227155804634097,
		-2.1507809162139894],
		"componentType":5126,
		"count":64,
		"byteOffset":0,
		"max":[0.23720096051692964,
		0.8170542120933533,
		2.084714889526367]
	},
	{
		"bufferView":11,
		"type":"VEC3",
		"min":[-0.1613750010728836,
		-0.00937500037252903,
		-1.0],
		"componentType":5126,
		"count":64,
		"byteOffset":12,
		"max":[0.1613750010728836,
		0.2825312614440918,
		0.9650312662124634]
	},
	{
		"bufferView":12,
		"type":"SCALAR",
		"min":[0],
		"componentType":5123,
		"count":282,
		"byteOffset":0,
		"max":[87]
	},
	{
		"bufferView":13,
		"type":"VEC3",
		"min":[-0.9086055159568787,
		0.885110080242157,
		-0.6083571910858154],
		"componentType":5126,
		"count":88,
		"byteOffset":0,
		"max":[0.9086055159568787,
		1.206961989402771,
		-0.40248870849609377]
	},
	{
		"bufferView":13,
		"type":"VEC3",
		"min":[-0.30912500619888308,
		-0.15671876072883607,
		0.9509688019752502],
		"componentType":5126,
		"count":88,
		"byteOffset":12,
		"max":[0.30912500619888308,
		0.0,
		0.9803438186645508]
	},
	{
		"bufferView":14,
		"type":"SCALAR",
		"min":[0],
		"componentType":5123,
		"count":1266,
		"byteOffset":0,
		"max":[317]
	},
	{
		"bufferView":15,
		"type":"VEC3",
		"min":[-0.6620815992355347,
		0.8498949408531189,
		-1.0742124319076539],
		"componentType":5126,
		"count":318,
		"byteOffset":0,
		"max":[0.6620815992355347,
		1.2719001770019532,
		1.715506911277771]
	},
	{
		"bufferView":15,
		"type":"VEC3",
		"min":[-0.253593772649765,
		0.717468798160553,
		-0.675000011920929],
		"componentType":5126,
		"count":318,
		"byteOffset":12,
		"max":[0.253593772649765,
		0.9491250514984131,
		0.4490000307559967]
	},
	{
		"bufferView":16,
		"type":"SCALAR",
		"min":[0],
		"componentType":5123,
		"count":6504,
		"byteOffset":0,
		"max":[1295]
	},
	{
		"bufferView":17,
		"type":"VEC3",
		"min":[-0.7206587791442871,
		0.8743195533752441,
		-0.9862834811210632],
		"componentType":5126,
		"count":1296,
		"byteOffset":0,
		"max":[0.7206587791442871,
		1.2813574075698853,
		1.6574835777282715]
	},
	{
		"bufferView":17,
		"type":"VEC3",
		"min":[-0.9427812695503235,
		0.33265626430511477,
		-0.5880625247955322],
		"componentType":5126,
		"count":1296,
		"byteOffset":12,
		"max":[0.9427812695503235,
		0.9494375586509705,
		0.4572812616825104]
	},
	{
		"bufferView":18,
		"type":"SCALAR",
		"min":[0],
		"componentType":5123,
		"count":960,
		"byteOffset":0,
		"max":[201]
	},
	{
		"bufferView":19,
		"type":"VEC3",
		"min":[-0.7223877906799316,
		0.2847627103328705,
		-2.0348472595214845],
		"componentType":5126,
		"count":202,
		"byteOffset":0,
		"max":[0.7223877906799316,
		0.6583839654922485,
		-1.7533226013183594]
	},
	{
		"bufferView":19,
		"type":"VEC3",
		"min":[-0.9990313053131104,
		-0.9244375228881836,
		-0.9939375519752502],
		"componentType":5126,
		"count":202,
		"byteOffset":12,
		"max":[0.9990313053131104,
		0.7502188086509705,
		-0.010687500238418579]
	},
	{
		"bufferView":20,
		"type":"SCALAR",
		"min":[0],
		"componentType":5123,
		"count":30990,
		"byteOffset":0,
		"max":[6028]
	},
	{
		"bufferView":21,
		"type":"VEC3",
		"min":[-0.8102520704269409,
		0.2552526593208313,
		-2.1490120887756349],
		"componentType":5126,
		"count":6029,
		"byteOffset":0,
		"max":[0.8102520704269409,
		1.295779824256897,
		2.1247036457061769]
	},
	{
		"bufferView":21,
		"type":"VEC3",
		"min":[-1.0,
		-1.0,
		-1.0],
		"componentType":5126,
		"count":6029,
		"byteOffset":12,
		"max":[1.0,
		1.0,
		1.0]
	},
	{
		"bufferView":22,
		"type":"SCALAR",
		"min":[0],
		"componentType":5123,
		"count":33498,
		"byteOffset":0,
		"max":[6762]
	},
	{
		"bufferView":23,
		"type":"VEC3",
		"min":[-0.9131157398223877,
		0.29176849126815798,
		-2.147754192352295],
		"componentType":5126,
		"count":6763,
		"byteOffset":0,
		"max":[0.9131157398223877,
		1.3421441316604615,
		2.1517252922058107]
	},
	{
		"bufferView":23,
		"type":"VEC3",
		"min":[-0.9999688267707825,
		-0.9997813105583191,
		-0.9998750686645508],
		"componentType":5126,
		"count":6763,
		"byteOffset":12,
		"max":[0.9999688267707825,
		0.9999063014984131,
		0.9998437762260437]
	},
	{
		"bufferView":24,
		"type":"SCALAR",
		"min":[0],
		"componentType":5123,
		"count":3774,
		"byteOffset":0,
		"max":[1234]
	},
	{
		"bufferView":25,
		"type":"VEC3",
		"min":[-0.8173373341560364,
		0.027012359350919725,
		-2.1369497776031496],
		"componentType":5126,
		"count":1235,
		"byteOffset":0,
		"max":[0.8173373341560364,
		0.9937469959259033,
		2.1087260246276857]
	},
	{
		"bufferView":25,
		"type":"VEC3",
		"min":[-1.0,
		-0.9999688267707825,
		-0.987000048160553],
		"componentType":5126,
		"count":1235,
		"byteOffset":12,
		"max":[1.0,
		0.999250054359436,
		1.0]
	},
	{
		"bufferView":26,
		"type":"SCALAR",
		"min":[0],
		"componentType":5123,
		"count":1584,
		"byteOffset":0,
		"max":[307]
	},
	{
		"bufferView":27,
		"type":"VEC3",
		"min":[-0.24339313805103303,
		0.37612447142601015,
		-2.1517252922058107],
		"componentType":5126,
		"count":308,
		"byteOffset":0,
		"max":[0.24339313805103303,
		0.8229632377624512,
		2.0870559215545656]
	},
	{
		"bufferView":27,
		"type":"VEC3",
		"min":[-0.9826250672340393,
		-1.0,
		-1.0],
		"componentType":5126,
		"count":308,
		"byteOffset":12,
		"max":[0.9826250672340393,
		1.0,
		0.999750018119812]
	}],
	"bufferViews":[{
		"buffer":0,
		"byteOffset":0,
		"byteLength":57360,
		"target":34963
	},
	{
		"byteStride":24,
		"buffer":0,
		"byteOffset":57360,
		"byteLength":130368,
		"target":34962
	},
	{
		"buffer":1,
		"byteOffset":0,
		"byteLength":16368,
		"target":34963
	},
	{
		"byteStride":24,
		"buffer":1,
		"byteOffset":16368,
		"byteLength":34560,
		"target":34962
	},
	{
		"buffer":2,
		"byteOffset":0,
		"byteLength":6672,
		"target":34963
	},
	{
		"byteStride":24,
		"buffer":2,
		"byteOffset":6672,
		"byteLength":13728,
		"target":34962
	},
	{
		"buffer":3,
		"byteOffset":0,
		"byteLength":1728,
		"target":34963
	},
	{
		"byteStride":24,
		"buffer":3,
		"byteOffset":1728,
		"byteLength":4896,
		"target":34962
	},
	{
		"buffer":4,
		"byteOffset":0,
		"byteLength":51336,
		"target":34963
	},
	{
		"byteStride":24,
		"buffer":4,
		"byteOffset":51336,
		"byteLength":134904,
		"target":34962
	},
	{
		"buffer":5,
		"byteOffset":0,
		"byteLength":480,
		"target":34963
	},
	{
		"byteStride":24,
		"buffer":5,
		"byteOffset":480,
		"byteLength":1536,
		"target":34962
	},
	{
		"buffer":6,
		"byteOffset":0,
		"byteLength":564,
		"target":34963
	},
	{
		"byteStride":24,
		"buffer":6,
		"byteOffset":564,
		"byteLength":2112,
		"target":34962
	},
	{
		"buffer":7,
		"byteOffset":0,
		"byteLength":2532,
		"target":34963
	},
	{
		"byteStride":24,
		"buffer":7,
		"byteOffset":2532,
		"byteLength":7632,
		"target":34962
	},
	{
		"buffer":8,
		"byteOffset":0,
		"byteLength":13008,
		"target":34963
	},
	{
		"byteStride":24,
		"buffer":8,
		"byteOffset":13008,
		"byteLength":31104,
		"target":34962
	},
	{
		"buffer":9,
		"byteOffset":0,
		"byteLength":1920,
		"target":34963
	},
	{
		"byteStride":24,
		"buffer":9,
		"byteOffset":1920,
		"byteLength":4848,
		"target":34962
	},
	{
		"buffer":10,
		"byteOffset":0,
		"byteLength":61980,
		"target":34963
	},
	{
		"byteStride":24,
		"buffer":10,
		"byteOffset":61980,
		"byteLength":144696,
		"target":34962
	},
	{
		"buffer":11,
		"byteOffset":0,
		"byteLength":66996,
		"target":34963
	},
	{
		"byteStride":24,
		"buffer":11,
		"byteOffset":66996,
		"byteLength":162312,
		"target":34962
	},
	{
		"buffer":12,
		"byteOffset":0,
		"byteLength":7548,
		"target":34963
	},
	{
		"byteStride":24,
		"buffer":12,
		"byteOffset":7548,
		"byteLength":29640,
		"target":34962
	},
	{
		"buffer":13,
		"byteOffset":0,
		"byteLength":3168,
		"target":34963
	},
	{
		"byteStride":24,
		"buffer":13,
		"byteOffset":3168,
		"byteLength":7392,
		"target":34962
	}],
	"buffers":[{
		"byteLength":187728,
		"uri":"data:application/octet-stream;base64,"
	},
	{
		"byteLength":50928,
		"uri":"data:application/octet-stream;base64,"
	},
	{
		"byteLength":20400,
		"uri":"data:application/octet-stream;base64,"
	},
	{
		"byteLength":6624,
		"uri":"data:application/octet-stream;base64,"
	},
	{
		"byteLength":186240,
		"uri":"data:application/octet-stream;base64,"
	},
	{
		"byteLength":2016,
		"uri":"data:application/octet-stream;base64,"
	},
	{
		"byteLength":2676,
		"uri":"data:application/octet-stream;base64,"
	},
	{
		"byteLength":10164,
		"uri":"data:application/octet-stream;base64,"
	},
	{
		"byteLength":44112,
		"uri":"data:application/octet-stream;base64,"
	},
	{
		"byteLength":6768,
		"uri":"data:application/octet-stream;base64,"
	},
	{
		"byteLength":206676,
		"uri":"data:application/octet-stream;base64,"
	},
	{
		"byteLength":229308,
		"uri":"data:application/octet-stream;base64,"
	},
	{
		"byteLength":37188,
		"uri":"data:application/octet-stream;base64,"
	},
	{
		"byteLength":10560,
		"uri":"data:application/octet-stream;base64,"
	}],
	"materials":[{
		"pbrMetallicRoughness":{
			"baseColorFactor":[0.8,
			0.8,
			0.8,
			1.0],
			"metallicFactor":0.0,
			"roughnessFactor":0.5
		},
		"emissiveFactor":[0.0,
		0.0,
		0.0],
		"alphaMode":"OPAQUE",
		"doubleSided":false,
		"name":"3DXY_Material_16"
	},
	{
		"pbrMetallicRoughness":{
			"baseColorFactor":[0.125490203499794,
			0.125490203499794,
			0.125490203499794,
			1.0],
			"metallicFactor":0.0,
			"roughnessFactor":0.5700000401610036
		},
		"emissiveFactor":[0.0,
		0.0,
		0.0],
		"alphaMode":"OPAQUE",
		"doubleSided":false,
		"name":"3DXY_Material_15"
	},
	{
		"pbrMetallicRoughness":{
			"baseColorFactor":[0.9921569228172302,
			0.9921569228172302,
			0.9921569228172302,
			1.0],
			"metallicFactor":1.0,
			"roughnessFactor":1.0
		},
		"emissiveFactor":[0.0,
		0.0,
		0.0],
		"alphaMode":"OPAQUE",
		"doubleSided":false,
		"name":"3DXY_Material_14"
	},
	{
		"pbrMetallicRoughness":{
			"baseColorFactor":[0.8196079134941101,
			0.16862745583057404,
			0.062745101749897,
			1.0],
			"metallicFactor":1.0,
			"roughnessFactor":1.0
		},
		"emissiveFactor":[0.0,
		0.0,
		0.0],
		"alphaMode":"OPAQUE",
		"doubleSided":false,
		"name":"3DXY_Material_13"
	},
	{
		"pbrMetallicRoughness":{
			"baseColorFactor":[0.46666669845581057,
			0.46666669845581057,
			0.46666669845581057,
			1.0],
			"metallicFactor":1.0,
			"roughnessFactor":1.0
		},
		"emissiveFactor":[0.0,
		0.0,
		0.0],
		"alphaMode":"OPAQUE",
		"doubleSided":false,
		"name":"3DXY_Material_12"
	},
	{
		"pbrMetallicRoughness":{
			"baseColorFactor":[0.8980392813682556,
			0.8980392813682556,
			0.8980392813682556,
			1.0],
			"metallicFactor":0.0,
			"roughnessFactor":0.2599999949998614
		},
		"emissiveFactor":[0.0,
		0.0,
		0.0],
		"alphaMode":"OPAQUE",
		"doubleSided":false,
		"name":"3DXY_Material_11"
	},
	{
		"pbrMetallicRoughness":{
			"baseColorFactor":[1.0,
			1.0,
			1.0,
			1.0],
			"metallicFactor":0.0,
			"roughnessFactor":0.0
		},
		"emissiveFactor":[0.0,
		0.0,
		0.0],
		"alphaMode":"OPAQUE",
		"doubleSided":false,
		"name":"3DXY_Material_10"
	},
	{
		"pbrMetallicRoughness":{
			"baseColorFactor":[0.10588236153125763,
			0.12941177189350129,
			0.12156863510608673,
			1.0],
			"metallicFactor":0.23,
			"roughnessFactor":0.0
		},
		"emissiveFactor":[0.0,
		0.0,
		0.0],
		"alphaMode":"OPAQUE",
		"doubleSided":false,
		"name":"3DXY_Material_7"
	},
	{
		"pbrMetallicRoughness":{
			"baseColorFactor":[0.06349206548339014,
			0.08,
			0.0791746032741695,
			1.0],
			"metallicFactor":0.19,
			"roughnessFactor":0.0
		},
		"emissiveFactor":[0.0,
		0.0,
		0.0],
		"alphaMode":"OPAQUE",
		"doubleSided":false,
		"name":"3DXY_Material_6"
	},
	{
		"pbrMetallicRoughness":{
			"baseColorFactor":[1.0,
			1.0,
			1.0,
			1.0],
			"metallicFactor":1.0,
			"roughnessFactor":1.0
		},
		"emissiveFactor":[0.0,
		0.0,
		0.0],
		"alphaMode":"OPAQUE",
		"doubleSided":false,
		"name":"3DXY_Material_5"
	},
	{
		"pbrMetallicRoughness":{
			"baseColorFactor":[0.5803921818733215,
			0.5803921818733215,
			0.5803921818733215,
			1.0],
			"metallicFactor":0.0,
			"roughnessFactor":0.2599999949998614
		},
		"emissiveFactor":[0.0,
		0.0,
		0.0],
		"alphaMode":"OPAQUE",
		"doubleSided":false,
		"name":"3DXY_Material_4"
	},
	{
		"pbrMetallicRoughness":{
			"baseColorFactor":[0.87,
			0.87,
			0.87,
			1.0],
			"metallicFactor":0.21,
			"roughnessFactor":0.0
		},
		"emissiveFactor":[0.0,
		0.0,
		0.0],
		"alphaMode":"OPAQUE",
		"doubleSided":false,
		"name":"3DXY_Material_3"
	},
	{
		"pbrMetallicRoughness":{
			"baseColorFactor":[0.0,
			0.0,
			0.0,
			1.0],
			"metallicFactor":1.0,
			"roughnessFactor":1.0
		},
		"emissiveFactor":[0.0,
		0.0,
		0.0],
		"alphaMode":"OPAQUE",
		"doubleSided":false,
		"name":"3DXY_Material_2"
	},
	{
		"pbrMetallicRoughness":{
			"baseColorFactor":[0.529411792755127,
			0.529411792755127,
			0.529411792755127,
			1.0],
			"metallicFactor":0.0,
			"roughnessFactor":0.5700000401610036
		},
		"emissiveFactor":[0.0,
		0.0,
		0.0],
		"alphaMode":"OPAQUE",
		"doubleSided":false,
		"name":"3DXY_Material_1"
	}]
}