{
	"asset":{
		"version":"2.0",
		"generator":"Created using the official Cinema 4D glTF Exporter 1.000x284978"
	},
	"scenes":[{
		"nodes":[0]
	}],
	"nodes":[{
		"name":"3DXY_geometry_001",
		"children":[1,
		2,
		3,
		4,
		5,
		6,
		7,
		8,
		9,
		10,
		11,
		12]
	},
	{
		"name":"3DXY_geometry_001-3DXY_Material_2",
		"mesh":0
	},
	{
		"name":"3DXY_geometry_001-3DXY_Material_4",
		"mesh":1
	},
	{
		"name":"3DXY_geometry_001-3DXY_Material_1",
		"mesh":2
	},
	{
		"name":"3DXY_geometry_001-3DXY_Material_3",
		"mesh":3
	},
	{
		"name":"3DXY_geometry_001-3DXY_Material_5",
		"mesh":4
	},
	{
		"name":"3DXY_geometry_001-3DXY_Material_6",
		"mesh":5
	},
	{
		"name":"3DXY_geometry_001-32side",
		"mesh":6
	},
	{
		"name":"3DXY_geometry_001-32top2",
		"mesh":7
	},
	{
		"name":"3DXY_geometry_001-32back",
		"mesh":8
	},
	{
		"name":"3DXY_geometry_001-32head",
		"mesh":9
	},
	{
		"name":"3DXY_geometry_001-32side2",
		"mesh":10
	},
	{
		"name":"3DXY_geometry_001-32top",
		"mesh":11
	}],
	"meshes":[{
		"name":"3DXY_geometry_001-3DXY_Material_2",
		"primitives":[{
			"attributes":{
				"POSITION":1,
				"NORMAL":2,
				"TEXCOORD_0":3
			},
			"indices":0,
			"material":0
		}]
	},
	{
		"name":"3DXY_geometry_001-3DXY_Material_4",
		"primitives":[{
			"attributes":{
				"POSITION":5,
				"NORMAL":6,
				"TEXCOORD_0":7
			},
			"indices":4,
			"material":1
		}]
	},
	{
		"name":"3DXY_geometry_001-3DXY_Material_1",
		"primitives":[{
			"attributes":{
				"POSITION":9,
				"NORMAL":10,
				"TEXCOORD_0":11
			},
			"indices":8,
			"material":2
		}]
	},
	{
		"name":"3DXY_geometry_001-3DXY_Material_3",
		"primitives":[{
			"attributes":{
				"POSITION":13,
				"NORMAL":14,
				"TEXCOORD_0":15
			},
			"indices":12,
			"material":3
		}]
	},
	{
		"name":"3DXY_geometry_001-3DXY_Material_5",
		"primitives":[{
			"attributes":{
				"POSITION":17,
				"NORMAL":18,
				"TEXCOORD_0":19
			},
			"indices":16,
			"material":4
		}]
	},
	{
		"name":"3DXY_geometry_001-3DXY_Material_6",
		"primitives":[{
			"attributes":{
				"POSITION":21,
				"NORMAL":22,
				"TEXCOORD_0":23
			},
			"indices":20,
			"material":5
		}]
	},
	{
		"name":"3DXY_geometry_001-32side",
		"primitives":[{
			"attributes":{
				"POSITION":25,
				"NORMAL":26,
				"TEXCOORD_0":27
			},
			"indices":24,
			"material":6
		}]
	},
	{
		"name":"3DXY_geometry_001-32top2",
		"primitives":[{
			"attributes":{
				"POSITION":29,
				"NORMAL":30,
				"TEXCOORD_0":31
			},
			"indices":28,
			"material":7
		}]
	},
	{
		"name":"3DXY_geometry_001-32back",
		"primitives":[{
			"attributes":{
				"POSITION":33,
				"NORMAL":34,
				"TEXCOORD_0":35
			},
			"indices":32,
			"material":8
		}]
	},
	{
		"name":"3DXY_geometry_001-32head",
		"primitives":[{
			"attributes":{
				"POSITION":37,
				"NORMAL":38,
				"TEXCOORD_0":39
			},
			"indices":36,
			"material":9
		}]
	},
	{
		"name":"3DXY_geometry_001-32side2",
		"primitives":[{
			"attributes":{
				"POSITION":41,
				"NORMAL":42,
				"TEXCOORD_0":43
			},
			"indices":40,
			"material":10
		}]
	},
	{
		"name":"3DXY_geometry_001-32top",
		"primitives":[{
			"attributes":{
				"POSITION":45,
				"NORMAL":46,
				"TEXCOORD_0":47
			},
			"indices":44,
			"material":11
		}]
	}],
	"accessors":[{
		"bufferView":0,
		"type":"SCALAR",
		"min":[0],
		"componentType":5123,
		"count":528,
		"byteOffset":0,
		"max":[183]
	},
	{
		"bufferView":1,
		"type":"VEC3",
		"min":[-0.8719993233680725,
		0.0,
		-2.9689104557037355],
		"componentType":5126,
		"count":184,
		"byteOffset":0,
		"max":[0.8508729338645935,
		0.6602236032485962,
		2.4010682106018068]
	},
	{
		"bufferView":1,
		"type":"VEC3",
		"min":[-0.015531250275671482,
		-0.9954375624656677,
		-0.9989375472068787],
		"componentType":5126,
		"count":184,
		"byteOffset":12,
		"max":[0.015531250275671482,
		0.995843768119812,
		0.9989063143730164]
	},
	{
		"bufferView":1,
		"type":"VEC2",
		"min":[-0.08276951313018799,
		-2.00899600982666],
		"componentType":5126,
		"count":184,
		"byteOffset":24,
		"max":[3.45444655418396,
		-0.0004945993423461914]
	},
	{
		"bufferView":2,
		"type":"SCALAR",
		"min":[0],
		"componentType":5123,
		"count":54,
		"byteOffset":0,
		"max":[21]
	},
	{
		"bufferView":3,
		"type":"VEC3",
		"min":[-0.1440674513578415,
		0.22434009611606599,
		-4.324328899383545],
		"componentType":5126,
		"count":22,
		"byteOffset":0,
		"max":[0.14504629373550416,
		0.6049942374229431,
		4.339911460876465]
	},
	{
		"bufferView":3,
		"type":"VEC3",
		"min":[-0.05303125083446503,
		-0.14003126323223115,
		-0.9923750758171082],
		"componentType":5126,
		"count":22,
		"byteOffset":12,
		"max":[0.05571875348687172,
		0.9899063110351563,
		0.9998437762260437]
	},
	{
		"bufferView":3,
		"type":"VEC2",
		"min":[0.07352899014949799,
		-0.9795730113983154],
		"componentType":5126,
		"count":22,
		"byteOffset":24,
		"max":[0.9363889694213867,
		-0.025125980377197267]
	},
	{
		"bufferView":4,
		"type":"SCALAR",
		"min":[0],
		"componentType":5123,
		"count":240,
		"byteOffset":0,
		"max":[87]
	},
	{
		"bufferView":5,
		"type":"VEC3",
		"min":[-0.8563166260719299,
		0.000011340333003317938,
		-2.9689104557037355],
		"componentType":5126,
		"count":88,
		"byteOffset":0,
		"max":[0.8333088159561157,
		0.6444420218467712,
		-2.327147960662842]
	},
	{
		"bufferView":5,
		"type":"VEC3",
		"min":[-0.9998437762260437,
		-0.005750000476837158,
		-0.014468750916421414],
		"componentType":5126,
		"count":88,
		"byteOffset":12,
		"max":[0.9998437762260437,
		0.005750000476837158,
		0.01731250062584877]
	},
	{
		"bufferView":5,
		"type":"VEC2",
		"min":[0.04064999520778656,
		-0.9649980068206787],
		"componentType":5126,
		"count":88,
		"byteOffset":24,
		"max":[0.9638580083847046,
		-0.04032301902770996]
	},
	{
		"bufferView":6,
		"type":"SCALAR",
		"min":[0],
		"componentType":5123,
		"count":240,
		"byteOffset":0,
		"max":[87]
	},
	{
		"bufferView":7,
		"type":"VEC3",
		"min":[-0.8719993233680725,
		0.0,
		1.752577543258667],
		"componentType":5126,
		"count":88,
		"byteOffset":0,
		"max":[0.8508729338645935,
		0.6602236032485962,
		2.4010682106018068]
	},
	{
		"bufferView":7,
		"type":"VEC3",
		"min":[-0.9999688267707825,
		-0.005687500350177288,
		-0.0001875000016298145],
		"componentType":5126,
		"count":88,
		"byteOffset":12,
		"max":[0.9999688267707825,
		0.005687500350177288,
		0.0001875000016298145]
	},
	{
		"bufferView":7,
		"type":"VEC2",
		"min":[0.04098399728536606,
		-0.9624819755554199],
		"componentType":5126,
		"count":88,
		"byteOffset":24,
		"max":[0.9659309387207031,
		-0.04098308086395264]
	},
	{
		"bufferView":8,
		"type":"SCALAR",
		"min":[0],
		"componentType":5123,
		"count":582,
		"byteOffset":0,
		"max":[291]
	},
	{
		"bufferView":9,
		"type":"VEC3",
		"min":[-1.0532361268997193,
		0.15017683804035188,
		-4.305572509765625],
		"componentType":5126,
		"count":292,
		"byteOffset":0,
		"max":[1.0532361268997193,
		1.447023630142212,
		4.3024001121521]
	},
	{
		"bufferView":9,
		"type":"VEC3",
		"min":[-0.9999688267707825,
		-0.9999688267707825,
		-0.9998750686645508],
		"componentType":5126,
		"count":292,
		"byteOffset":12,
		"max":[0.9999688267707825,
		0.9999688267707825,
		0.9999688267707825]
	},
	{
		"bufferView":9,
		"type":"VEC2",
		"min":[-0.8104575872421265,
		-20.610660552978517],
		"componentType":5126,
		"count":292,
		"byteOffset":24,
		"max":[19.21246337890625,
		1.4872016906738282]
	},
	{
		"bufferView":10,
		"type":"SCALAR",
		"min":[0],
		"componentType":5123,
		"count":9594,
		"byteOffset":0,
		"max":[3227]
	},
	{
		"bufferView":11,
		"type":"VEC3",
		"min":[-0.8321179747581482,
		0.49772417545318606,
		-4.300013542175293],
		"componentType":5126,
		"count":3228,
		"byteOffset":0,
		"max":[0.8207432627677918,
		1.7116214036941529,
		4.263059139251709]
	},
	{
		"bufferView":11,
		"type":"VEC3",
		"min":[-0.9999688267707825,
		-0.9999688267707825,
		-0.9999688267707825],
		"componentType":5126,
		"count":3228,
		"byteOffset":12,
		"max":[0.9999688267707825,
		0.9999688267707825,
		0.9999688267707825]
	},
	{
		"bufferView":11,
		"type":"VEC2",
		"min":[-0.7079170942306519,
		-1.7079170942306519],
		"componentType":5126,
		"count":3228,
		"byteOffset":24,
		"max":[1.7079169750213624,
		0.7079169750213623]
	},
	{
		"bufferView":12,
		"type":"SCALAR",
		"min":[0],
		"componentType":5123,
		"count":357,
		"byteOffset":0,
		"max":[98]
	},
	{
		"bufferView":13,
		"type":"VEC3",
		"min":[-0.9000660181045532,
		0.15299998223781587,
		-4.258114337921143],
		"componentType":5126,
		"count":99,
		"byteOffset":0,
		"max":[-0.7709439396858215,
		2.1829299926757814,
		4.221406936645508]
	},
	{
		"bufferView":13,
		"type":"VEC3",
		"min":[-0.9999688267707825,
		-0.04481250047683716,
		-0.10093750804662705],
		"componentType":5126,
		"count":99,
		"byteOffset":12,
		"max":[0.9988125562667847,
		0.37796875834465029,
		0.34275001287460329]
	},
	{
		"bufferView":13,
		"type":"VEC2",
		"min":[0.019360065460205079,
		-0.9705809354782105],
		"componentType":5126,
		"count":99,
		"byteOffset":24,
		"max":[0.9877662658691406,
		-0.02941906452178955]
	},
	{
		"bufferView":14,
		"type":"SCALAR",
		"min":[0],
		"componentType":5123,
		"count":72,
		"byteOffset":0,
		"max":[32]
	},
	{
		"bufferView":15,
		"type":"VEC3",
		"min":[-0.47138655185699465,
		2.2105953693389894,
		-0.9258955717086792],
		"componentType":5126,
		"count":33,
		"byteOffset":0,
		"max":[0.5170524716377258,
		2.3555500507354738,
		1.5816779136657715]
	},
	{
		"bufferView":15,
		"type":"VEC3",
		"min":[-0.7514687776565552,
		0.6181562542915344,
		-0.753031313419342],
		"componentType":5126,
		"count":33,
		"byteOffset":12,
		"max":[0.7589687705039978,
		0.9999063014984131,
		0.7639063000679016]
	},
	{
		"bufferView":15,
		"type":"VEC2",
		"min":[0.05555599927902222,
		-0.9913070201873779],
		"componentType":5126,
		"count":33,
		"byteOffset":24,
		"max":[0.9456769227981567,
		-0.010661005973815918]
	},
	{
		"bufferView":16,
		"type":"SCALAR",
		"min":[0],
		"componentType":5123,
		"count":162,
		"byteOffset":0,
		"max":[47]
	},
	{
		"bufferView":17,
		"type":"VEC3",
		"min":[-0.8612111210823059,
		0.2709581255912781,
		4.197485446929932],
		"componentType":5126,
		"count":48,
		"byteOffset":0,
		"max":[0.8862212300300598,
		2.2381393909454347,
		4.331530570983887]
	},
	{
		"bufferView":17,
		"type":"VEC3",
		"min":[-0.882562518119812,
		-0.46531251072883608,
		-0.6325000524520874],
		"componentType":5126,
		"count":48,
		"byteOffset":12,
		"max":[0.8771875500679016,
		0.8483750224113464,
		0.9999688267707825]
	},
	{
		"bufferView":17,
		"type":"VEC2",
		"min":[0.0004996657371520996,
		-0.9944718480110169],
		"componentType":5126,
		"count":48,
		"byteOffset":24,
		"max":[0.9995005130767822,
		-0.03445148468017578]
	},
	{
		"bufferView":18,
		"type":"SCALAR",
		"min":[0],
		"componentType":5123,
		"count":384,
		"byteOffset":0,
		"max":[95]
	},
	{
		"bufferView":19,
		"type":"VEC3",
		"min":[-0.8627495765686035,
		0.13979095220565797,
		-4.339911460876465],
		"componentType":5126,
		"count":96,
		"byteOffset":0,
		"max":[0.8840364217758179,
		2.1568963527679445,
		-4.2302422523498539]
	},
	{
		"bufferView":19,
		"type":"VEC3",
		"min":[-0.9090937972068787,
		-0.03931250050663948,
		-0.9999688267707825],
		"componentType":5126,
		"count":96,
		"byteOffset":12,
		"max":[0.9098438024520874,
		0.7570000290870667,
		-0.40796875953674319]
	},
	{
		"bufferView":19,
		"type":"VEC2",
		"min":[0.0004996061325073242,
		-0.9793993234634399],
		"componentType":5126,
		"count":96,
		"byteOffset":24,
		"max":[0.9995005130767822,
		-0.00929403305053711]
	},
	{
		"bufferView":20,
		"type":"SCALAR",
		"min":[0],
		"componentType":5123,
		"count":357,
		"byteOffset":0,
		"max":[98]
	},
	{
		"bufferView":21,
		"type":"VEC3",
		"min":[0.8144497871398926,
		0.14301477372646333,
		-4.258464336395264],
		"componentType":5126,
		"count":99,
		"byteOffset":0,
		"max":[0.9327059388160706,
		2.1731014251708986,
		4.2210540771484379]
	},
	{
		"bufferView":21,
		"type":"VEC3",
		"min":[0.9300000667572022,
		-0.058531254529953,
		-0.03215625137090683],
		"componentType":5126,
		"count":99,
		"byteOffset":12,
		"max":[0.9999688267707825,
		0.3673437535762787,
		0.3423750102519989]
	},
	{
		"bufferView":21,
		"type":"VEC2",
		"min":[0.019347429275512697,
		-0.9957935810089111],
		"componentType":5126,
		"count":99,
		"byteOffset":24,
		"max":[0.9877686500549316,
		-0.02614116668701172]
	},
	{
		"bufferView":22,
		"type":"SCALAR",
		"min":[0],
		"componentType":5123,
		"count":252,
		"byteOffset":0,
		"max":[58]
	},
	{
		"bufferView":23,
		"type":"VEC3",
		"min":[-0.8356870412826538,
		2.1003129482269289,
		-4.279090881347656],
		"componentType":5126,
		"count":59,
		"byteOffset":0,
		"max":[0.8824183344841003,
		2.256248712539673,
		4.22391414642334]
	},
	{
		"bufferView":23,
		"type":"VEC3",
		"min":[-0.6983437538146973,
		0.6526562571525574,
		-0.253781259059906],
		"componentType":5126,
		"count":59,
		"byteOffset":12,
		"max":[0.7059375047683716,
		0.9998750686645508,
		0.27521875500679018]
	},
	{
		"bufferView":23,
		"type":"VEC2",
		"min":[0.09683942794799805,
		-1.0453777313232422],
		"componentType":5126,
		"count":59,
		"byteOffset":24,
		"max":[0.9316046237945557,
		-0.5112316608428955]
	}],
	"bufferViews":[{
		"buffer":0,
		"byteOffset":0,
		"byteLength":1056,
		"target":34963
	},
	{
		"byteStride":32,
		"buffer":0,
		"byteOffset":1056,
		"byteLength":5888,
		"target":34962
	},
	{
		"buffer":1,
		"byteOffset":0,
		"byteLength":108,
		"target":34963
	},
	{
		"byteStride":32,
		"buffer":1,
		"byteOffset":108,
		"byteLength":704,
		"target":34962
	},
	{
		"buffer":2,
		"byteOffset":0,
		"byteLength":480,
		"target":34963
	},
	{
		"byteStride":32,
		"buffer":2,
		"byteOffset":480,
		"byteLength":2816,
		"target":34962
	},
	{
		"buffer":3,
		"byteOffset":0,
		"byteLength":480,
		"target":34963
	},
	{
		"byteStride":32,
		"buffer":3,
		"byteOffset":480,
		"byteLength":2816,
		"target":34962
	},
	{
		"buffer":4,
		"byteOffset":0,
		"byteLength":1164,
		"target":34963
	},
	{
		"byteStride":32,
		"buffer":4,
		"byteOffset":1164,
		"byteLength":9344,
		"target":34962
	},
	{
		"buffer":5,
		"byteOffset":0,
		"byteLength":19188,
		"target":34963
	},
	{
		"byteStride":32,
		"buffer":5,
		"byteOffset":19188,
		"byteLength":103296,
		"target":34962
	},
	{
		"buffer":6,
		"byteOffset":0,
		"byteLength":714,
		"target":34963
	},
	{
		"byteStride":32,
		"buffer":6,
		"byteOffset":716,
		"byteLength":3168,
		"target":34962
	},
	{
		"buffer":7,
		"byteOffset":0,
		"byteLength":144,
		"target":34963
	},
	{
		"byteStride":32,
		"buffer":7,
		"byteOffset":144,
		"byteLength":1056,
		"target":34962
	},
	{
		"buffer":8,
		"byteOffset":0,
		"byteLength":324,
		"target":34963
	},
	{
		"byteStride":32,
		"buffer":8,
		"byteOffset":324,
		"byteLength":1536,
		"target":34962
	},
	{
		"buffer":9,
		"byteOffset":0,
		"byteLength":768,
		"target":34963
	},
	{
		"byteStride":32,
		"buffer":9,
		"byteOffset":768,
		"byteLength":3072,
		"target":34962
	},
	{
		"buffer":10,
		"byteOffset":0,
		"byteLength":714,
		"target":34963
	},
	{
		"byteStride":32,
		"buffer":10,
		"byteOffset":716,
		"byteLength":3168,
		"target":34962
	},
	{
		"buffer":11,
		"byteOffset":0,
		"byteLength":504,
		"target":34963
	},
	{
		"byteStride":32,
		"buffer":11,
		"byteOffset":504,
		"byteLength":1888,
		"target":34962
	}],
	"buffers":[{
		"byteLength":6944,
		"uri":"data:application/octet-stream;base64,"
	},
	{
		"byteLength":812,
		"uri":"data:application/octet-stream;base64,"
	},
	{
		"byteLength":3296,
		"uri":"data:application/octet-stream;base64,"
	},
	{
		"byteLength":3296,
		"uri":"data:application/octet-stream;base64,"
	},
	{
		"byteLength":10508,
		"uri":"data:application/octet-stream;base64,"
	},
	{
		"byteLength":122484,
		"uri":"data:application/octet-stream;base64,"
	},
	{
		"byteLength":3884,
		"uri":"data:application/octet-stream;base64,"
	},
	{
		"byteLength":1200,
		"uri":"data:application/octet-stream;base64,"
	},
	{
		"byteLength":1860,
		"uri":"data:application/octet-stream;base64,"
	},
	{
		"byteLength":3840,
		"uri":"data:application/octet-stream;base64,"
	},
	{
		"byteLength":3884,
		"uri":"data:application/octet-stream;base64,"
	},
	{
		"byteLength":2392,
		"uri":"data:application/octet-stream;base64,"
	}],
	"images":[{
		"uri":"data:image/jpeg;base64,"
	},
	{
		"uri":"data:image/jpeg;base64,"
	},
	{
		"uri":"data:image/jpeg;base64,"
	},
	{
		"uri":"data:image/jpeg;base64,"
	},
	{
		"uri":"data:image/jpeg;base64,"
	},
	{
		"uri":"data:image/jpeg;base64,"
	},
	{
		"uri":"data:image/jpeg;base64,"
	},
	{
		"uri":"data:image/jpeg;base64,"
	},
	{
		"uri":"data:image/jpeg;base64,"
	},
	{
		"uri":"data:image/jpeg;base64,"
	},
	{
		"uri":"data:image/jpeg;base64,"
	}],
	"samplers":[{
		"magFilter":9729,
		"minFilter":9729,
		"wrapS":10497,
		"wrapT":10497
	},
	{
		"magFilter":9729,
		"minFilter":9729,
		"wrapS":10497,
		"wrapT":10497
	},
	{
		"magFilter":9729,
		"minFilter":9729,
		"wrapS":10497,
		"wrapT":10497
	},
	{
		"magFilter":9729,
		"minFilter":9729,
		"wrapS":10497,
		"wrapT":10497
	},
	{
		"magFilter":9729,
		"minFilter":9729,
		"wrapS":10497,
		"wrapT":10497
	},
	{
		"magFilter":9729,
		"minFilter":9729,
		"wrapS":10497,
		"wrapT":10497
	},
	{
		"magFilter":9729,
		"minFilter":9729,
		"wrapS":10497,
		"wrapT":10497
	},
	{
		"magFilter":9729,
		"minFilter":9729,
		"wrapS":10497,
		"wrapT":10497
	},
	{
		"magFilter":9729,
		"minFilter":9729,
		"wrapS":10497,
		"wrapT":10497
	},
	{
		"magFilter":9729,
		"minFilter":9729,
		"wrapS":10497,
		"wrapT":10497
	},
	{
		"magFilter":9729,
		"minFilter":9729,
		"wrapS":10497,
		"wrapT":10497
	}],
	"textures":[{
		"sampler":0,
		"source":0
	},
	{
		"sampler":1,
		"source":1
	},
	{
		"sampler":2,
		"source":2
	},
	{
		"sampler":3,
		"source":3
	},
	{
		"sampler":4,
		"source":4
	},
	{
		"sampler":5,
		"source":5
	},
	{
		"sampler":6,
		"source":6
	},
	{
		"sampler":7,
		"source":7
	},
	{
		"sampler":8,
		"source":8
	},
	{
		"sampler":9,
		"source":9
	},
	{
		"sampler":10,
		"source":10
	}],
	"materials":[{
		"pbrMetallicRoughness":{
			"baseColorTexture":{
				"index":0
			},
			"baseColorFactor":[0.5882353186607361,
			0.5882353186607361,
			0.5882353186607361,
			1.0],
			"metallicFactor":1.0,
			"roughnessFactor":1.0
		},
		"emissiveFactor":[0.0,
		0.0,
		0.0],
		"alphaMode":"OPAQUE",
		"doubleSided":false,
		"name":"3DXY_Material_2"
	},
	{
		"pbrMetallicRoughness":{
			"baseColorTexture":{
				"index":1
			},
			"baseColorFactor":[0.5,
			0.5,
			0.5,
			1.0],
			"metallicFactor":0.0,
			"roughnessFactor":0.7500000024690674
		},
		"emissiveFactor":[0.0,
		0.0,
		0.0],
		"alphaMode":"OPAQUE",
		"doubleSided":false,
		"name":"3DXY_Material_4"
	},
	{
		"pbrMetallicRoughness":{
			"baseColorTexture":{
				"index":2
			},
			"baseColorFactor":[0.5882353186607361,
			0.5882353186607361,
			0.5882353186607361,
			1.0],
			"metallicFactor":1.0,
			"roughnessFactor":1.0
		},
		"emissiveFactor":[0.0,
		0.0,
		0.0],
		"alphaMode":"OPAQUE",
		"doubleSided":false,
		"name":"3DXY_Material_1"
	},
	{
		"pbrMetallicRoughness":{
			"baseColorTexture":{
				"index":3
			},
			"baseColorFactor":[0.5882353186607361,
			0.5882353186607361,
			0.5882353186607361,
			1.0],
			"metallicFactor":1.0,
			"roughnessFactor":1.0
		},
		"emissiveFactor":[0.0,
		0.0,
		0.0],
		"alphaMode":"OPAQUE",
		"doubleSided":false,
		"name":"3DXY_Material_3"
	},
	{
		"pbrMetallicRoughness":{
			"baseColorFactor":[0.125490203499794,
			0.125490203499794,
			0.125490203499794,
			1.0],
			"metallicFactor":1.0,
			"roughnessFactor":1.0
		},
		"emissiveFactor":[0.0,
		0.0,
		0.0],
		"alphaMode":"OPAQUE",
		"doubleSided":false,
		"name":"3DXY_Material_5"
	},
	{
		"pbrMetallicRoughness":{
			"baseColorTexture":{
				"index":4
			},
			"baseColorFactor":[0.5882353186607361,
			0.5882353186607361,
			0.5882353186607361,
			1.0],
			"metallicFactor":1.0,
			"roughnessFactor":1.0
		},
		"emissiveFactor":[0.0,
		0.0,
		0.0],
		"alphaMode":"OPAQUE",
		"doubleSided":false,
		"name":"3DXY_Material_6"
	},
	{
		"pbrMetallicRoughness":{
			"baseColorTexture":{
				"index":5
			},
			"baseColorFactor":[0.5882353186607361,
			0.5882353186607361,
			0.5882353186607361,
			1.0],
			"metallicFactor":1.0,
			"roughnessFactor":1.0
		},
		"emissiveFactor":[0.0,
		0.0,
		0.0],
		"alphaMode":"OPAQUE",
		"doubleSided":false,
		"name":"32side"
	},
	{
		"pbrMetallicRoughness":{
			"baseColorTexture":{
				"index":6
			},
			"baseColorFactor":[0.5879999995231628,
			0.5879999995231628,
			0.5879999995231628,
			1.0],
			"metallicFactor":1.0,
			"roughnessFactor":1.0
		},
		"emissiveFactor":[0.0,
		0.0,
		0.0],
		"alphaMode":"OPAQUE",
		"doubleSided":false,
		"name":"32top2"
	},
	{
		"pbrMetallicRoughness":{
			"baseColorTexture":{
				"index":7
			},
			"baseColorFactor":[0.5882353186607361,
			0.5882353186607361,
			0.5882353186607361,
			1.0],
			"metallicFactor":1.0,
			"roughnessFactor":1.0
		},
		"emissiveFactor":[0.0,
		0.0,
		0.0],
		"alphaMode":"OPAQUE",
		"doubleSided":false,
		"name":"32back"
	},
	{
		"pbrMetallicRoughness":{
			"baseColorTexture":{
				"index":8
			},
			"baseColorFactor":[0.5882353186607361,
			0.5882353186607361,
			0.5882353186607361,
			1.0],
			"metallicFactor":1.0,
			"roughnessFactor":1.0
		},
		"emissiveFactor":[0.0,
		0.0,
		0.0],
		"alphaMode":"OPAQUE",
		"doubleSided":false,
		"name":"32head"
	},
	{
		"pbrMetallicRoughness":{
			"baseColorTexture":{
				"index":9
			},
			"baseColorFactor":[0.5879999995231628,
			0.5879999995231628,
			0.5879999995231628,
			1.0],
			"metallicFactor":1.0,
			"roughnessFactor":1.0
		},
		"emissiveFactor":[0.0,
		0.0,
		0.0],
		"alphaMode":"OPAQUE",
		"doubleSided":false,
		"name":"32side2"
	},
	{
		"pbrMetallicRoughness":{
			"baseColorTexture":{
				"index":10
			},
			"baseColorFactor":[0.5879999995231628,
			0.5879999995231628,
			0.5879999995231628,
			1.0],
			"metallicFactor":1.0,
			"roughnessFactor":1.0
		},
		"emissiveFactor":[0.0,
		0.0,
		0.0],
		"alphaMode":"OPAQUE",
		"doubleSided":false,
		"name":"32top"
	}]
}