{
	"asset":{
		"version":"2.0",
		"generator":"Created using the official Cinema 4D glTF Exporter 1.000x284978"
	},
	"scenes":[{
		"nodes":[0]
	}],
	"nodes":[{
		"name":"3DXY_group_001.1",
		"children":[1,
		2,
		3,
		4,
		5,
		6,
		7,
		8,
		9,
		10,
		11,
		12]
	},
	{
		"name":"3DXY_group_001.1",
		"mesh":0
	},
	{
		"name":"3DXY_group_001.1-3DXY_Material_9",
		"mesh":1
	},
	{
		"name":"3DXY_group_001.1-3DXY_Material_6",
		"mesh":2
	},
	{
		"name":"3DXY_group_001.1-3DXY_Material_10",
		"mesh":3
	},
	{
		"name":"3DXY_group_001.1-3DXY_Material_8",
		"mesh":4
	},
	{
		"name":"3DXY_group_001.1-3DXY_Material_11",
		"mesh":5
	},
	{
		"name":"3DXY_group_001.1-3DXY_Material_12",
		"mesh":6
	},
	{
		"name":"3DXY_group_001.1-3DXY_Material_5",
		"mesh":7
	},
	{
		"name":"3DXY_group_001.1-3DXY_Material_2",
		"mesh":8
	},
	{
		"name":"3DXY_group_001.1-3DXY_Material_3",
		"mesh":9
	},
	{
		"name":"3DXY_group_001.1-3DXY_Material_7",
		"mesh":10
	},
	{
		"name":"3DXY_group_001.1-3DXY_Material_4",
		"mesh":11
	}],
	"meshes":[{
		"name":"3DXY_group_001.1",
		"primitives":[{
			"attributes":{
				"POSITION":1,
				"NORMAL":2
			},
			"indices":0
		}]
	},
	{
		"name":"3DXY_group_001.1-3DXY_Material_9",
		"primitives":[{
			"attributes":{
				"POSITION":4,
				"NORMAL":5
			},
			"indices":3,
			"material":0
		}]
	},
	{
		"name":"3DXY_group_001.1-3DXY_Material_6",
		"primitives":[{
			"attributes":{
				"POSITION":7,
				"NORMAL":8
			},
			"indices":6,
			"material":1
		}]
	},
	{
		"name":"3DXY_group_001.1-3DXY_Material_10",
		"primitives":[{
			"attributes":{
				"POSITION":10,
				"NORMAL":11
			},
			"indices":9,
			"material":2
		}]
	},
	{
		"name":"3DXY_group_001.1-3DXY_Material_8",
		"primitives":[{
			"attributes":{
				"POSITION":13,
				"NORMAL":14
			},
			"indices":12,
			"material":3
		}]
	},
	{
		"name":"3DXY_group_001.1-3DXY_Material_11",
		"primitives":[{
			"attributes":{
				"POSITION":16,
				"NORMAL":17
			},
			"indices":15,
			"material":4
		}]
	},
	{
		"name":"3DXY_group_001.1-3DXY_Material_12",
		"primitives":[{
			"attributes":{
				"POSITION":19,
				"NORMAL":20
			},
			"indices":18,
			"material":5
		}]
	},
	{
		"name":"3DXY_group_001.1-3DXY_Material_5",
		"primitives":[{
			"attributes":{
				"POSITION":22,
				"NORMAL":23
			},
			"indices":21,
			"material":6
		}]
	},
	{
		"name":"3DXY_group_001.1-3DXY_Material_2",
		"primitives":[{
			"attributes":{
				"POSITION":25,
				"NORMAL":26
			},
			"indices":24,
			"material":7
		}]
	},
	{
		"name":"3DXY_group_001.1-3DXY_Material_3",
		"primitives":[{
			"attributes":{
				"POSITION":28,
				"NORMAL":29
			},
			"indices":27,
			"material":8
		}]
	},
	{
		"name":"3DXY_group_001.1-3DXY_Material_7",
		"primitives":[{
			"attributes":{
				"POSITION":31,
				"NORMAL":32
			},
			"indices":30,
			"material":9
		}]
	},
	{
		"name":"3DXY_group_001.1-3DXY_Material_4",
		"primitives":[{
			"attributes":{
				"POSITION":34,
				"NORMAL":35
			},
			"indices":33,
			"material":10
		}]
	}],
	"accessors":[{
		"bufferView":0,
		"type":"SCALAR",
		"min":[0],
		"componentType":5123,
		"count":201,
		"byteOffset":0,
		"max":[72]
	},
	{
		"bufferView":1,
		"type":"VEC3",
		"min":[-0.17493927478790284,
		0.244023859500885,
		-0.8213485479354858],
		"componentType":5126,
		"count":73,
		"byteOffset":0,
		"max":[0.1796206533908844,
		0.7904848456382752,
		0.8502907156944275]
	},
	{
		"bufferView":1,
		"type":"VEC3",
		"min":[-0.9967188239097595,
		-0.3121562600135803,
		-0.0001250000059371814],
		"componentType":5126,
		"count":73,
		"byteOffset":12,
		"max":[0.9978125691413879,
		0.9847813248634338,
		0.9062500596046448]
	},
	{
		"bufferView":2,
		"type":"SCALAR",
		"min":[0],
		"componentType":5123,
		"count":72,
		"byteOffset":0,
		"max":[41]
	},
	{
		"bufferView":3,
		"type":"VEC3",
		"min":[-0.16776123642921449,
		0.33578935265541079,
		-2.122441053390503],
		"componentType":5126,
		"count":42,
		"byteOffset":0,
		"max":[0.1675187647342682,
		0.7950905561447144,
		2.080979108810425]
	},
	{
		"bufferView":3,
		"type":"VEC3",
		"min":[-1.0,
		-1.0,
		-1.0],
		"componentType":5126,
		"count":42,
		"byteOffset":12,
		"max":[1.0,
		1.0,
		0.9810938239097595]
	},
	{
		"bufferView":4,
		"type":"SCALAR",
		"min":[0],
		"componentType":5123,
		"count":3834,
		"byteOffset":0,
		"max":[802]
	},
	{
		"bufferView":5,
		"type":"VEC3",
		"min":[-0.7855915427207947,
		0.9007217288017273,
		-1.0099025964736939],
		"componentType":5126,
		"count":803,
		"byteOffset":0,
		"max":[0.7855915427207947,
		1.3488997220993043,
		2.0488784313201906]
	},
	{
		"bufferView":5,
		"type":"VEC3",
		"min":[-0.9468750357627869,
		0.3213750123977661,
		-0.49146878719329836],
		"componentType":5126,
		"count":803,
		"byteOffset":12,
		"max":[0.9468750357627869,
		0.900812566280365,
		0.8879687786102295]
	},
	{
		"bufferView":6,
		"type":"SCALAR",
		"min":[0],
		"componentType":5123,
		"count":360,
		"byteOffset":0,
		"max":[97]
	},
	{
		"bufferView":7,
		"type":"VEC3",
		"min":[-0.8652257323265076,
		0.6945279240608215,
		-0.9262624382972717],
		"componentType":5126,
		"count":98,
		"byteOffset":0,
		"max":[0.8652257323265076,
		0.7241080403327942,
		-0.8450811505317688]
	},
	{
		"bufferView":7,
		"type":"VEC3",
		"min":[-1.0,
		-0.971250057220459,
		-0.7063437700271606],
		"componentType":5126,
		"count":98,
		"byteOffset":12,
		"max":[1.0,
		0.9696875214576721,
		0.7063437700271606]
	},
	{
		"bufferView":8,
		"type":"SCALAR",
		"min":[0],
		"componentType":5123,
		"count":576,
		"byteOffset":0,
		"max":[127]
	},
	{
		"bufferView":9,
		"type":"VEC3",
		"min":[-0.7453376650810242,
		0.6146161556243897,
		1.8160754442214966],
		"componentType":5126,
		"count":128,
		"byteOffset":0,
		"max":[0.7453376650810242,
		0.9583406448364258,
		2.0335891246795656]
	},
	{
		"bufferView":9,
		"type":"VEC3",
		"min":[-0.9468125700950623,
		-0.04368750378489494,
		0.22018751502037049],
		"componentType":5126,
		"count":128,
		"byteOffset":12,
		"max":[0.9468125700950623,
		0.5981562733650208,
		0.9739688038825989]
	},
	{
		"bufferView":10,
		"type":"SCALAR",
		"min":[0],
		"componentType":5123,
		"count":1260,
		"byteOffset":0,
		"max":[317]
	},
	{
		"bufferView":11,
		"type":"VEC3",
		"min":[-0.7883240580558777,
		0.34182009100914,
		-2.0390989780426027],
		"componentType":5126,
		"count":318,
		"byteOffset":0,
		"max":[0.7883241176605225,
		0.7297837734222412,
		-1.756080150604248]
	},
	{
		"bufferView":11,
		"type":"VEC3",
		"min":[-0.9670313000679016,
		-0.9652500748634338,
		-1.0],
		"componentType":5126,
		"count":318,
		"byteOffset":12,
		"max":[0.9670313000679016,
		0.9652500748634338,
		0.0001250000059371814]
	},
	{
		"bufferView":12,
		"type":"SCALAR",
		"min":[0],
		"componentType":5123,
		"count":6600,
		"byteOffset":0,
		"max":[1163]
	},
	{
		"bufferView":13,
		"type":"VEC3",
		"min":[-0.8359060883522034,
		-3.029225902379759e-31,
		-1.5875244140625],
		"componentType":5126,
		"count":1164,
		"byteOffset":0,
		"max":[0.8359060883522034,
		0.5994399785995483,
		1.6535155773162842]
	},
	{
		"bufferView":13,
		"type":"VEC3",
		"min":[-0.9994375705718994,
		-1.0,
		-1.0],
		"componentType":5126,
		"count":1164,
		"byteOffset":12,
		"max":[0.9994375705718994,
		1.0,
		1.0]
	},
	{
		"bufferView":14,
		"type":"SCALAR",
		"min":[0],
		"componentType":5123,
		"count":15942,
		"byteOffset":0,
		"max":[4465]
	},
	{
		"bufferView":15,
		"type":"VEC3",
		"min":[-0.8485353589057922,
		0.09301658719778061,
		-2.0340192317962648],
		"componentType":5126,
		"count":4466,
		"byteOffset":0,
		"max":[0.8485353589057922,
		0.7297837734222412,
		1.5604994297027588]
	},
	{
		"bufferView":15,
		"type":"VEC3",
		"min":[-1.0,
		-1.0,
		-1.0],
		"componentType":5126,
		"count":4466,
		"byteOffset":12,
		"max":[1.0,
		1.0,
		1.0]
	},
	{
		"bufferView":16,
		"type":"SCALAR",
		"min":[0],
		"componentType":5123,
		"count":1584,
		"byteOffset":0,
		"max":[659]
	},
	{
		"bufferView":17,
		"type":"VEC3",
		"min":[-0.6973188519477844,
		0.1369740515947342,
		-1.4505078792572022],
		"componentType":5126,
		"count":660,
		"byteOffset":0,
		"max":[0.6973188519477844,
		0.46246296167373659,
		1.5398175716400147]
	},
	{
		"bufferView":17,
		"type":"VEC3",
		"min":[-1.0,
		-0.9664688110351563,
		-0.9652500748634338],
		"componentType":5126,
		"count":660,
		"byteOffset":12,
		"max":[1.0,
		0.9999063014984131,
		0.9652500748634338]
	},
	{
		"bufferView":18,
		"type":"SCALAR",
		"min":[0],
		"componentType":5123,
		"count":945,
		"byteOffset":0,
		"max":[374]
	},
	{
		"bufferView":19,
		"type":"VEC3",
		"min":[-0.8538264632225037,
		0.20428316295146943,
		-2.053544759750366],
		"componentType":5126,
		"count":375,
		"byteOffset":0,
		"max":[0.8538264632225037,
		0.6761493682861328,
		2.0752689838409426]
	},
	{
		"bufferView":19,
		"type":"VEC3",
		"min":[-1.0,
		-1.0,
		-1.0],
		"componentType":5126,
		"count":375,
		"byteOffset":12,
		"max":[1.0,
		1.0,
		1.0]
	},
	{
		"bufferView":20,
		"type":"SCALAR",
		"min":[0],
		"componentType":5123,
		"count":46965,
		"byteOffset":0,
		"max":[10530]
	},
	{
		"bufferView":21,
		"type":"VEC3",
		"min":[-0.9753036499023438,
		0.16889694333076478,
		-2.124641180038452],
		"componentType":5126,
		"count":10531,
		"byteOffset":0,
		"max":[0.9753036499023438,
		1.4355878829956055,
		2.124641180038452]
	},
	{
		"bufferView":21,
		"type":"VEC3",
		"min":[-0.9999688267707825,
		-0.9999688267707825,
		-0.9996563196182251],
		"componentType":5126,
		"count":10531,
		"byteOffset":12,
		"max":[0.9999688267707825,
		0.9999688267707825,
		0.9999688267707825]
	},
	{
		"bufferView":22,
		"type":"SCALAR",
		"min":[0],
		"componentType":5123,
		"count":11430,
		"byteOffset":0,
		"max":[3689]
	},
	{
		"bufferView":23,
		"type":"VEC3",
		"min":[-0.8545345664024353,
		0.2966080904006958,
		-2.060483455657959],
		"componentType":5126,
		"count":3690,
		"byteOffset":0,
		"max":[0.8545344471931458,
		1.4318455457687379,
		2.0507073402404787]
	},
	{
		"bufferView":23,
		"type":"VEC3",
		"min":[-0.9999063014984131,
		-0.9996563196182251,
		-1.0],
		"componentType":5126,
		"count":3690,
		"byteOffset":12,
		"max":[0.9998750686645508,
		0.9995625615119934,
		1.0]
	}],
	"bufferViews":[{
		"buffer":0,
		"byteOffset":0,
		"byteLength":402,
		"target":34963
	},
	{
		"byteStride":24,
		"buffer":0,
		"byteOffset":404,
		"byteLength":1752,
		"target":34962
	},
	{
		"buffer":1,
		"byteOffset":0,
		"byteLength":144,
		"target":34963
	},
	{
		"byteStride":24,
		"buffer":1,
		"byteOffset":144,
		"byteLength":1008,
		"target":34962
	},
	{
		"buffer":2,
		"byteOffset":0,
		"byteLength":7668,
		"target":34963
	},
	{
		"byteStride":24,
		"buffer":2,
		"byteOffset":7668,
		"byteLength":19272,
		"target":34962
	},
	{
		"buffer":3,
		"byteOffset":0,
		"byteLength":720,
		"target":34963
	},
	{
		"byteStride":24,
		"buffer":3,
		"byteOffset":720,
		"byteLength":2352,
		"target":34962
	},
	{
		"buffer":4,
		"byteOffset":0,
		"byteLength":1152,
		"target":34963
	},
	{
		"byteStride":24,
		"buffer":4,
		"byteOffset":1152,
		"byteLength":3072,
		"target":34962
	},
	{
		"buffer":5,
		"byteOffset":0,
		"byteLength":2520,
		"target":34963
	},
	{
		"byteStride":24,
		"buffer":5,
		"byteOffset":2520,
		"byteLength":7632,
		"target":34962
	},
	{
		"buffer":6,
		"byteOffset":0,
		"byteLength":13200,
		"target":34963
	},
	{
		"byteStride":24,
		"buffer":6,
		"byteOffset":13200,
		"byteLength":27936,
		"target":34962
	},
	{
		"buffer":7,
		"byteOffset":0,
		"byteLength":31884,
		"target":34963
	},
	{
		"byteStride":24,
		"buffer":7,
		"byteOffset":31884,
		"byteLength":107184,
		"target":34962
	},
	{
		"buffer":8,
		"byteOffset":0,
		"byteLength":3168,
		"target":34963
	},
	{
		"byteStride":24,
		"buffer":8,
		"byteOffset":3168,
		"byteLength":15840,
		"target":34962
	},
	{
		"buffer":9,
		"byteOffset":0,
		"byteLength":1890,
		"target":34963
	},
	{
		"byteStride":24,
		"buffer":9,
		"byteOffset":1892,
		"byteLength":9000,
		"target":34962
	},
	{
		"buffer":10,
		"byteOffset":0,
		"byteLength":93930,
		"target":34963
	},
	{
		"byteStride":24,
		"buffer":10,
		"byteOffset":93932,
		"byteLength":252744,
		"target":34962
	},
	{
		"buffer":11,
		"byteOffset":0,
		"byteLength":22860,
		"target":34963
	},
	{
		"byteStride":24,
		"buffer":11,
		"byteOffset":22860,
		"byteLength":88560,
		"target":34962
	}],
	"buffers":[{
		"byteLength":2156,
		"uri":"data:application/octet-stream;base64,"
	},
	{
		"byteLength":1152,
		"uri":"data:application/octet-stream;base64,"
	},
	{
		"byteLength":26940,
		"uri":"data:application/octet-stream;base64,"
	},
	{
		"byteLength":3072,
		"uri":"data:application/octet-stream;base64,"
	},
	{
		"byteLength":4224,
		"uri":"data:application/octet-stream;base64,"
	},
	{
		"byteLength":10152,
		"uri":"data:application/octet-stream;base64,"
	},
	{
		"byteLength":41136,
		"uri":"data:application/octet-stream;base64,"
	},
	{
		"byteLength":139068,
		"uri":"data:application/octet-stream;base64,"
	},
	{
		"byteLength":19008,
		"uri":"data:application/octet-stream;base64,"
	},
	{
		"byteLength":10892,
		"uri":"data:application/octet-stream;base64,"
	},
	{
		"byteLength":346676,
		"uri":"data:application/octet-stream;base64,"
	},
	{
		"byteLength":111420,
		"uri":"data:application/octet-stream;base64,"
	}],
	"materials":[{
		"pbrMetallicRoughness":{
			"baseColorFactor":[1.0,
			1.0,
			1.0,
			1.0],
			"metallicFactor":0.0,
			"roughnessFactor":0.7500000024690674
		},
		"emissiveFactor":[0.0,
		0.0,
		0.0],
		"alphaMode":"OPAQUE",
		"doubleSided":false,
		"name":"3DXY_Material_9"
	},
	{
		"pbrMetallicRoughness":{
			"baseColorFactor":[0.0469,
			0.07,
			0.06846000000000004,
			1.0],
			"metallicFactor":0.23,
			"roughnessFactor":0.0
		},
		"emissiveFactor":[0.0,
		0.0,
		0.0],
		"alphaMode":"OPAQUE",
		"doubleSided":false,
		"name":"3DXY_Material_6"
	},
	{
		"pbrMetallicRoughness":{
			"baseColorFactor":[1.0,
			0.8000000715255737,
			0.0,
			0.75],
			"metallicFactor":0.0,
			"roughnessFactor":0.7500000024690674
		},
		"emissiveFactor":[0.0,
		0.0,
		0.0],
		"alphaMode":"BLEND",
		"doubleSided":false,
		"name":"3DXY_Material_10"
	},
	{
		"pbrMetallicRoughness":{
			"baseColorFactor":[0.988235354423523,
			0.14117647707462309,
			0.0,
			0.75],
			"metallicFactor":0.0,
			"roughnessFactor":0.7500000024690674
		},
		"emissiveFactor":[0.0,
		0.0,
		0.0],
		"alphaMode":"BLEND",
		"doubleSided":false,
		"name":"3DXY_Material_8"
	},
	{
		"pbrMetallicRoughness":{
			"baseColorFactor":[1.0,
			1.0,
			1.0,
			0.73],
			"metallicFactor":0.0,
			"roughnessFactor":0.7500000024690674
		},
		"emissiveFactor":[0.0,
		0.0,
		0.0],
		"alphaMode":"BLEND",
		"doubleSided":false,
		"name":"3DXY_Material_11"
	},
	{
		"pbrMetallicRoughness":{
			"baseColorFactor":[0.0182,
			0.02,
			0.019880000000000003,
			1.0],
			"metallicFactor":0.0,
			"roughnessFactor":0.48
		},
		"emissiveFactor":[0.0,
		0.0,
		0.0],
		"alphaMode":"OPAQUE",
		"doubleSided":false,
		"name":"3DXY_Material_12"
	},
	{
		"pbrMetallicRoughness":{
			"baseColorFactor":[0.67,
			0.67,
			0.67,
			1.0],
			"metallicFactor":0.0,
			"roughnessFactor":0.7500000024690674
		},
		"emissiveFactor":[0.0,
		0.0,
		0.0],
		"alphaMode":"OPAQUE",
		"doubleSided":false,
		"name":"3DXY_Material_5"
	},
	{
		"pbrMetallicRoughness":{
			"baseColorFactor":[0.5529412031173706,
			0.5529412031173706,
			0.5529412031173706,
			1.0],
			"metallicFactor":0.0,
			"roughnessFactor":0.7500000024690674
		},
		"emissiveFactor":[0.0,
		0.0,
		0.0],
		"alphaMode":"OPAQUE",
		"doubleSided":false,
		"name":"3DXY_Material_2"
	},
	{
		"pbrMetallicRoughness":{
			"baseColorFactor":[0.1568627506494522,
			0.1568627506494522,
			0.1568627506494522,
			1.0],
			"metallicFactor":0.0,
			"roughnessFactor":0.7500000024690674
		},
		"emissiveFactor":[0.0,
		0.0,
		0.0],
		"alphaMode":"OPAQUE",
		"doubleSided":false,
		"name":"3DXY_Material_3"
	},
	{
		"pbrMetallicRoughness":{
			"baseColorFactor":[1.0,
			0.0,
			0.0,
			1.0],
			"metallicFactor":0.21,
			"roughnessFactor":0.1
		},
		"emissiveFactor":[0.0,
		0.0,
		0.0],
		"alphaMode":"OPAQUE",
		"doubleSided":false,
		"name":"3DXY_Material_7"
	},
	{
		"pbrMetallicRoughness":{
			"baseColorFactor":[0.13,
			0.13,
			0.13,
			1.0],
			"metallicFactor":0.11,
			"roughnessFactor":0.0
		},
		"emissiveFactor":[0.0,
		0.0,
		0.0],
		"alphaMode":"OPAQUE",
		"doubleSided":false,
		"name":"3DXY_Material_4"
	}]
}