<?xml version="1.0" standalone="no"?><!DOCTYPE svg PUBLIC "-//W3C//DTD SVG 1.1//EN" "http://www.w3.org/Graphics/SVG/1.1/DTD/svg11.dtd" ><svg xmlns="http://www.w3.org/2000/svg"><metadata></metadata><defs><font id="PangMenZhengDao" horiz-adv-x="1057"><font-face font-family="PangMenZhengDao" font-weight="400" font-stretch="normal" units-per-em="1000" panose-1="2 1 6 0 3 1 1 1 1 1" ascent="859" descent="-141" x-height="1" bbox="-41 -183 1044 763" underline-thickness="46" underline-position="-85" unicode-range="U+0021-98ce" /><missing-glyph horiz-adv-x="1000"  /><glyph glyph-name="exclam" unicode="!" d="M207 667 l0 -503 l-142 0 l0 503 l142 0 ZM207 113 l0 -113 l-142 0 l0 113 l142 0 Z" /><glyph glyph-name="quotedbl" unicode="&quot;" d="M152 398 l-90 0 l0 269 l90 0 l0 -269 ZM345 398 l-91 0 l0 269 l91 0 l0 -269 Z" /><glyph glyph-name="numbersign" unicode="#" d="M194 633 l113 0 l-27 -168 l131 0 l26 168 l113 0 l-27 -168 l111 0 l-11 -67 l-110 0 l-18 -116 l110 0 l-11 -67 l-110 0 l-29 -182 l-113 0 l29 182 l-130 0 l-29 -182 l-113 0 l29 182 l-110 0 l10 67 l111 0 l18 116 l-111 0 l11 67 l110 0 l27 168 ZM400 398 l-130 0 l-19 -116 l131 0 l18 116 Z" /><glyph glyph-name="dollar" unicode="$" d="M308 119 l0 161 q-82 0 -109.5 3 q-27.5 3 -58.5 15 q-54 21 -83 78 q-22 44 -22 93 q0 43 17.5 85 q17.5 42 47.5 70 q29 27 66.5 35 q37.5 8 141.5 8 l0 96 l82 0 l0 -96 l234 0 l0 -119 l-234 0 l0 -150 q83 0 116 -4.5 q33 -4.5 65 -20.5 q53 -27 75 -85 q16 -45 16 -92 q0 -77 -43 -132 q-25 -31 -59.5 -46 q-34.5 -15 -85.5 -17 q-28 -1 -84 -1 l0 -98 l-82 0 l0 98 l-241 0 l0 119 l241 0 ZM390 119 q38 0 59 5 q24 6 39.5 26.5 q15.5 20.5 15.5 46.5 q0 48 -41 70 q-21 11 -73 13 l0 -161 ZM308 548 q-34 -1 -57 -4 q-59 -7 -59 -70 q0 -61 66 -73 q12 -2 50 -3 l0 150 Z" /><glyph glyph-name="percent" unicode="%" d="M215 669 q91 0 135 -41.5 q44 -41.5 44 -126.5 q0 -168 -170 -168 q-185 0 -185 169 q0 85 42.5 126 q42.5 41 133.5 41 ZM214 597 q-38 0 -57.5 -24 q-19.5 -24 -19.5 -69 q0 -52 19.5 -75.5 q19.5 -23.5 63.5 -23.5 q39 0 57.5 24 q18.5 24 18.5 74 q0 93 -82 94 ZM531 667 l85 0 l-270 -667 l-85 0 l270 667 ZM663 333 q91 0 135 -41.5 q44 -41.5 44 -126.5 q0 -169 -170 -169 q-185 0 -185 170 q0 85 43 126 q43 41 133 41 ZM662 261 q-77 0 -77 -93 q0 -52 19.5 -76 q19.5 -24 63.5 -24 q39 0 57.5 24 q18.5 24 18.5 75 q0 93 -82 94 Z" /><glyph glyph-name="ampersand" unicode="&amp;" d="M737 393 l0 -119 l-92 0 q-50 -154 -128.5 -216 q-78.5 -62 -223.5 -62 q-107 0 -163 34 q-47 29 -67 76 q-18 43 -18 88 q0 50 22 86.5 q22 36.5 62 51.5 q-41 25 -62 52 q-32 43 -32 106 q0 78 52 130 q26 26 64 36.5 q38 10.5 109 10.5 l223 0 l0 -119 l-190 0 q-95 0 -95 -75 q0 -35 22.5 -57.5 q22.5 -22.5 56.5 -22.5 l49 0 l0 -119 q-8 0 -22 0 q-36 0 -50.5 -2.5 q-14.5 -2.5 -25.5 -10.5 q-27 -19 -27 -61 q0 -43 26.5 -63.5 q26.5 -20.5 83.5 -20.5 q77 0 120.5 37 q43.5 37 63.5 121 l-97 0 l0 119 l339 0 Z" /><glyph glyph-name="quotesingle" unicode="&#39;" d="M152 398 l-90 0 l0 269 l90 0 l0 -269 Z" /><glyph glyph-name="parenleft" unicode="(" d="M392 762 l0 -111 q-118 -6 -163 -90 q-42 -80 -42 -240 q0 -170 63 -241 q24 -28 56 -41.5 q32 -13.5 86 -18.5 l0 -112 q-98 7 -153 30 q-196 81 -196 391 q0 238 121 352 q65 62 154 75 q27 4 74 6 Z" /><glyph glyph-name="parenright" unicode=")" d="M33 762 q99 -5 145 -26 q103 -45 156 -158 q47 -100 47 -249 q0 -241 -118 -344 q-41 -35 -94 -53 q-53 -18 -136 -24 l0 112 q53 5 85.5 18.5 q32.5 13.5 56.5 41.5 q63 71 63 241 q0 172 -47.5 248.5 q-47.5 76.5 -157.5 81.5 l0 111 Z" /><glyph glyph-name="asterisk" unicode="*" d="M129 379 l-64 46 l55 75 l-91 27 l28 74 l88 -29 l-2 95 l79 0 l-3 -95 l88 29 l28 -74 l-90 -27 l54 -75 l-64 -46 l-53 76 l-53 -76 Z" /><glyph glyph-name="plus" unicode="+" d="M36 395 l186 0 l0 178 l113 0 l0 -178 l186 0 l0 -109 l-186 0 l0 -179 l-113 0 l0 179 l-186 0 l0 109 Z" /><glyph glyph-name="comma" unicode="," d="M181 130 l0 -116 l-77 -151 l-61 0 l61 137 l-44 0 l0 130 l121 0 Z" /><glyph glyph-name="hyphen" unicode="-" d="M233 318 l0 -120 l-233 0 l0 120 l233 0 Z" /><glyph glyph-name="period" unicode="." d="M172 130 l0 -130 l-121 0 l0 130 l121 0 Z" /><glyph glyph-name="slash" unicode="/" d="M84 -92 l-125 0 l491 850 l125 0 l-491 -850 Z" /><glyph glyph-name="zero" unicode="0" d="M359 670 q188 0 266 -100 q66 -85 66 -237 q0 -181 -87 -264 q-79 -73 -227 -73 q-198 0 -282 109 q-62 82 -62 230 q0 171 79.5 252.5 q79.5 81.5 246.5 82.5 ZM356 559 q-45 0 -81.5 -19.5 q-36.5 -19.5 -55.5 -54.5 q-13 -22 -21.5 -63.5 q-8.5 -41.5 -8.5 -80.5 q0 -45 9 -90 q9 -45 22 -70 q39 -73 150 -73 q61 0 94 25 q46 34 60 101 q11 52 11 105 q0 51 -12 95.5 q-12 44.5 -32 69.5 q-20 25 -56 39.5 q-36 14.5 -79 15.5 Z" /><glyph glyph-name="one" unicode="1" d="M210 0 l-142 0 l0 667 l142 0 l0 -667 Z" /><glyph glyph-name="two" unicode="2" d="M178 118 l436 0 l0 -118 l-577 0 l0 177 q-2 112 56 171 q27 26 59 35 q32 9 100 9 l109 0 q55 0 78 13 q36 21 36 62 q0 45 -33 66 q-25 15 -81 15 l-314 0 l0 119 l344 0 q128 0 178 -43 q30 -24 46 -64.5 q16 -40.5 16 -87.5 q0 -58 -20 -102.5 q-20 -44.5 -55 -65.5 q-52 -31 -156 -31 l-94 0 q-50 0 -74.5 -6 q-24.5 -6 -36.5 -22 q-16 -16 -17 -68 l0 -59 Z" /><glyph glyph-name="three" unicode="3" d="M33 0 l0 118 l286 0 q59 0 80 17 q26 21 26 62 q0 50 -33 69 q-21 12 -73 12 l-223 0 l0 118 l223 0 q63 0 82 16 q23 19 23 59 q0 44 -30 64 q-11 8 -25.5 10.5 q-14.5 2.5 -49.5 2.5 l-286 0 l0 119 l311 0 q66 -1 84.5 -3 q18.5 -2 40.5 -10 q52 -19 82 -70 q30 -47 30 -101 q0 -93 -89 -145 q89 -58 89 -161 q0 -95 -72 -141 q-32 -21 -69.5 -28.5 q-37.5 -7.5 -112.5 -7.5 l-294 0 Z" /><glyph glyph-name="four" unicode="4" d="M24 116 l0 141 l376 410 l187 0 l0 -433 l88 0 l0 -118 l-88 0 l0 -116 l-142 0 l0 116 l-421 0 ZM183 234 l262 0 l0 285 l-262 -285 Z" /><glyph glyph-name="five" unicode="5" d="M605 667 l0 -119 l-407 0 l0 -152 l212 0 q62 0 98.5 -8 q36.5 -8 62.5 -28 q70 -53 70 -155 q0 -129 -108 -179 q-57 -26 -184 -26 l-292 0 l0 118 l292 0 q60 0 92 10 q20 7 31.5 25.5 q11.5 18.5 11.5 43.5 q0 28 -13 48.5 q-13 20.5 -34 26.5 q-17 5 -88 6 l-292 0 l0 389 l548 0 Z" /><glyph glyph-name="six" unicode="6" d="M192 393 l225 0 q76 0 112.5 -8 q36.5 -8 61.5 -29 q65 -53 65 -149 q0 -114 -98 -174 q-61 -37 -188 -37 q-91 0 -146 16 q-55 16 -95 53 q-49 47 -74 124 q-22 72 -22 145 q0 112 46 202 q47 91 141 116 q52 15 154 15 l246 0 l0 -119 l-203 0 q-134 2 -174 -26 q-24 -17 -37 -50.5 q-13 -33.5 -14 -78.5 ZM192 274 q1 -73 29 -115 q19 -29 52 -40 q33 -11 99 -11 q40 0 63 5 q23 5 39 17 q26 20 26 62 q0 44 -32 67 q-21 15 -75 15 l-201 0 Z" /><glyph glyph-name="seven" unicode="7" d="M607 667 l0 -119 l-404 -548 l-174 0 l419 548 l-422 0 l0 119 l581 0 Z" /><glyph glyph-name="eight" unicode="8" d="M138 333 q-55 33 -77 69 q-22 36 -22 92 q0 119 107 159 q45 17 192 17 q110 0 153.5 -3 q43.5 -3 71.5 -14 q56 -22 84 -77 q22 -42 22 -90 q0 -108 -103 -153 q46 -26 65 -49 q35 -43 35 -105 q0 -74 -57 -132 q-28 -29 -80 -40 q-52 -11 -159 -11 q-70 0 -132 3 q-92 3 -141 48 q-59 55 -59 129 q0 60 35 104 q19 25 65 53 ZM353 559 q-87 0 -112 -9 q-46 -16 -46 -75 q0 -64 50 -78 q13 -4 109 -6 q76 2 90.5 3 q14.5 1 26.5 5 q42 17 42 73 q0 65 -56 80 q-24 7 -104 7 ZM352 281 q-87 0 -112 -10 q-45 -17 -45 -77 q0 -66 49 -80 q13 -4 108 -6 q75 1 90 2.5 q15 1.5 26 6.5 q41 16 41 75 q0 66 -54 82 q-24 7 -103 7 Z" /><glyph glyph-name="nine" unicode="9" d="M499 274 l-224 0 q-77 0 -113.5 7.5 q-36.5 7.5 -61.5 28.5 q-65 53 -65 150 q0 113 99 173 q61 37 188 37 q90 0 145 -15.5 q55 -15.5 96 -52.5 q49 -47 73 -125 q22 -72 22 -145 q0 -111 -46 -201 q-47 -92 -141 -117 q-52 -14 -154 -14 l-246 0 l0 118 l204 0 q134 -2 173 26 q24 17 37.5 51 q13.5 34 13.5 79 ZM499 392 q0 73 -29 116 q-18 28 -51 39.5 q-33 11.5 -96 11.5 q-73 0 -98 -17 q-34 -22 -34 -69 q0 -43 33 -66 q20 -15 75 -15 l200 0 Z" /><glyph glyph-name="colon" unicode=":" d="M172 130 l0 -130 l-121 0 l0 130 l121 0 ZM172 364 l0 -130 l-121 0 l0 130 l121 0 Z" /><glyph glyph-name="semicolon" unicode=";" d="M181 364 l0 -130 l-121 0 l0 130 l121 0 ZM181 130 l0 -116 l-77 -151 l-61 0 l61 137 l-44 0 l0 130 l121 0 Z" /><glyph glyph-name="less" unicode="&lt;" d="M466 631 l0 -154 l-269 -140 l269 -141 l0 -153 l-433 230 l0 129 l433 229 Z" /><glyph glyph-name="equal" unicode="=" d="M36 491 l485 0 l0 -110 l-485 0 l0 110 ZM36 299 l485 0 l0 -110 l-485 0 l0 110 Z" /><glyph glyph-name="greater" unicode="&gt;" d="M33 43 l0 154 l269 140 l-269 142 l0 152 l433 -229 l0 -130 l-433 -229 Z" /><glyph glyph-name="question" unicode="?" d="M59 667 l347 0 q77 0 109 -7 q32 -7 62 -29 q36 -26 53 -66 q17 -40 17 -97 q0 -69 -31 -118 q-26 -40 -69 -57 q-43 -17 -119 -17 l-88 0 q-72 0 -96 -16 q-24 -16 -24 -63 l0 -34 l-142 0 l0 47 q1 103 54 147 q25 20 62.5 28.5 q37.5 8.5 101.5 8.5 l82 0 q63 0 85 14 q28 17 28 65 q0 54 -41 69 q-20 6 -93 6 l-298 0 l0 119 ZM220 113 l0 -113 l-142 0 l0 113 l142 0 Z" /><glyph glyph-name="at" unicode="@" d="M588 73 l0 -73 l-226 0 q-88 0 -143 16 q-87 26 -136 116 q-50 90 -50 201 q0 112 50 202 q46 85 136 117 q69 24 187 24 q170 0 252 -58 q47 -34 74 -91 q27 -58 27 -123 q0 -75 -36 -142 q-24 -43 -56 -68 q-32 -25 -84 -42 l-212 0 q-59 0 -79.5 4.5 q-20.5 4.5 -42.5 20.5 q-46 35 -46 107 q0 61 20.5 111 q20.5 50 56.5 78 q30 22 65 32 q35 10 87 10 l149 0 l-41 -294 l42 0 q20 14 32 33 q41 64 41 147 q0 55 -20 99 q-20 44 -54 67 q-55 37 -174 37 q-144 0 -199 -58 q-29 -31 -47 -89.5 q-18 -58.5 -18 -123.5 q0 -82 28 -148 q28 -66 73.5 -89 q45.5 -23 148.5 -23 l195 0 ZM458 434 l-16 0 q-69 0 -95 -35 q-27 -36 -27 -94 q0 -37 21 -54.5 q21 -17.5 68 -17.5 l20 0 l29 201 Z" /><glyph glyph-name="A" unicode="A" d="M3 0 l276 667 l163 0 l276 -667 l-166 0 l-65 154 l-253 0 l-65 -154 l-166 0 ZM361 506 l-95 -233 l190 0 l-95 233 Z" /><glyph glyph-name="B" unicode="B" d="M68 0 l0 667 l377 0 q89 0 129 -21 q47 -23 71 -77 q17 -37 17 -77 q0 -52 -27.5 -97 q-27.5 -45 -69.5 -62 q97 -44 97 -157 q0 -65 -31 -109 q-27 -38 -69 -52.5 q-42 -14.5 -125 -14.5 l-369 0 ZM210 393 l193 0 q31 0 44.5 3 q13.5 3 26.5 13 q31 24 31 66 q0 40 -29 59 q-21 14 -70 14 l-196 0 l0 -155 ZM210 119 l193 0 q31 0 45 3 q14 3 26 13 q31 24 31 66 q0 40 -29 59 q-21 14 -70 14 l-196 0 l0 -155 Z" /><glyph glyph-name="C" unicode="C" d="M575 119 l0 -119 l-233 0 q-66 0 -101 7 q-123 24 -175 137 q-34 76 -34 188 q0 134 52 218 q38 61 101.5 89 q63.5 28 163.5 28 l226 0 l0 -119 l-210 0 q-95 0 -139 -51 q-37 -42 -37 -152 q0 -148 57 -194 q40 -32 125 -32 l204 0 Z" /><glyph glyph-name="D" unicode="D" d="M68 667 l283 0 q106 0 164 -21 q107 -39 143 -143 q27 -80 27 -171 q0 -90 -26 -170 q-26 -82 -86 -121 q-38 -24 -83.5 -32.5 q-45.5 -8.5 -138.5 -8.5 l-283 0 l0 667 ZM210 548 l0 -429 l141 0 q93 0 129 41 q22 26 35.5 73 q13.5 47 13.5 100 q0 59 -16 108 q-16 49 -42 73 q-38 34 -120 34 l-141 0 Z" /><glyph glyph-name="E" unicode="E" d="M568 667 l0 -119 l-185 0 q-72 0 -105 -10 q-33 -10 -55 -39 q-15 -20 -20.5 -40 q-5.5 -20 -9.5 -68 l375 0 l0 -119 l-375 0 q8 -86 51 -119.5 q43 -33.5 146 -33.5 l178 0 l0 -119 l-185 0 q-75 0 -132 9 q-90 15 -143 79 q-76 92 -76 249 q0 174 107 271 q37 33 78.5 46 q41.5 13 111.5 13 l239 0 Z" /><glyph glyph-name="F" unicode="F" d="M599 394 l0 -119 l-398 0 l0 -275 l-141 0 l0 348 q1 150 28 197 q34 66 98.5 94 q64.5 28 181.5 28 l231 0 l0 -119 l-213 0 q-99 -2 -127 -16 q-56 -23 -58 -102 l0 -36 l398 0 Z" /><glyph glyph-name="G" unicode="G" d="M313 396 l327 0 l0 -396 l-298 0 q-77 0 -122.5 11.5 q-45.5 11.5 -82.5 40.5 q-105 81 -105 279 q0 129 50 215 q37 63 101 92 q64 29 166 29 l291 0 l0 -119 l-275 0 q-89 0 -129 -39 q-48 -46 -48 -165 q0 -61 12.5 -110 q12.5 -49 34.5 -73 q19 -22 52.5 -32 q33.5 -10 82.5 -10 l129 0 l0 158 l-186 0 l0 119 Z" /><glyph glyph-name="H" unicode="H" d="M609 667 l0 -667 l-141 0 l0 276 l-258 0 l0 -276 l-142 0 l0 667 l142 0 l0 -272 l258 0 l0 272 l141 0 Z" /><glyph glyph-name="I" unicode="I" d="M68 0 l0 667 l142 0 l0 -667 l-142 0 Z" /><glyph glyph-name="J" unicode="J" d="M14 0 l0 119 l136 0 q64 0 94.5 4.5 q30.5 4.5 46.5 18.5 q22 17 30.5 49 q8.5 32 8.5 101 l0 375 l141 0 l0 -375 q0 -70 -5 -106 q-5 -36 -20 -68 q-38 -85 -138 -109 q-48 -9 -143 -9 l-151 0 Z" /><glyph glyph-name="K" unicode="K" d="M210 667 l0 -667 l-142 0 l0 667 l142 0 ZM215 337 l255 330 l187 0 l-279 -330 l266 -337 l-187 0 l-242 337 Z" /><glyph glyph-name="L" unicode="L" d="M60 667 l141 0 l0 -375 q3 -71 6 -94 q7 -46 44 -62.5 q37 -16.5 130 -16.5 l136 0 l0 -119 l-151 0 q-107 0 -155 12 q-110 32 -140 140 q-11 42 -11 140 l0 375 Z" /><glyph glyph-name="M" unicode="M" d="M272 667 l166 -521 l175 521 l207 0 l0 -667 l-135 0 l0 500 l-174 -500 l-146 0 l-165 500 l0 -500 l-135 0 l0 667 l207 0 Z" /><glyph glyph-name="N" unicode="N" d="M204 489 l0 -489 l-136 0 l0 667 l182 0 l265 -497 l0 497 l135 0 l0 -667 l-174 0 l-272 489 Z" /><glyph glyph-name="O" unicode="O" d="M361 671 q100 0 176 -34 q89 -41 125 -137 q28 -75 28 -176 q0 -102 -34 -177 q-43 -89 -132 -125 q-66 -26 -152 -26 q-113 0 -196 42 q-70 35 -107 110 q-37 75 -37 182 q0 191 95 272 q80 68 234 69 ZM362 559 q-98 0 -140 -64 q-34 -50 -34 -161 q0 -117 42 -172 q42 -54 133 -54 q88 0 129.5 55 q41.5 55 41.5 170 q0 105 -34 160 q-39 65 -138 66 Z" /><glyph glyph-name="P" unicode="P" d="M210 233 l0 -233 l-142 0 l0 667 l333 0 q91 0 130 -13 q66 -22 104 -91 q28 -52 28 -113 q0 -51 -18.5 -96.5 q-18.5 -45.5 -51.5 -74.5 q-30 -26 -63.5 -36 q-33.5 -10 -91.5 -10 l-228 0 ZM210 352 l193 0 q52 0 73 16 q31 25 31 87 q0 67 -47 86 q-17 7 -54 7 l-196 0 l0 -196 Z" /><glyph glyph-name="Q" unicode="Q" d="M730 119 l0 -119 l-250 0 l-54 0 q-84 0 -115 2.5 q-31 2.5 -74 12.5 q-112 26 -165 128 q-40 78 -40 187 q0 190 95 272 q81 69 234 69 q101 0 176 -34 q47 -22 77 -54 q30 -32 48 -83 q29 -79 29 -162 q0 -128 -74 -219 l113 0 ZM362 559 q-88 0 -130.5 -53.5 q-42.5 -53.5 -42.5 -162.5 q0 -95 28 -154 q37 -77 146 -77 q102 0 141 71 q30 54 30 157 q0 94 -36 153 q-41 65 -136 66 Z" /><glyph glyph-name="R" unicode="R" d="M210 253 l0 -253 l-142 0 l0 667 l326 0 q140 0 195 -36 q38 -24 58.5 -63.5 q20.5 -39.5 20.5 -86.5 q0 -95 -48 -147 q-30 -31 -79 -47 q39 -14 59 -29.5 q20 -15.5 36 -45.5 q12 -24 17.5 -46 q5.5 -22 8.5 -65 q6 -72 16 -101 l-159 0 q-7 23 -15 95 q-5 58 -20.5 89 q-15.5 31 -46.5 49 q-39 21 -113 20 l-114 0 ZM210 372 l199 0 q50 0 71 15 q32 22 32 77 q0 61 -48 78 q-17 6 -55 6 l-199 0 l0 -176 Z" /><glyph glyph-name="S" unicode="S" d="M65 0 l0 119 l305 0 q73 0 97 14 q35 21 35 63 q0 49 -41 71 q-23 13 -74 13 l-124 0 q-113 0 -163 41 q-31 26 -48.5 65 q-17.5 39 -17.5 84 q0 70 41 128 q40 56 128 66 q30 3 89 3 l331 0 l0 -119 l-299 0 q-67 -1 -89 -6 q-45 -11 -45 -68 q0 -48 38 -64 q25 -12 84 -12 l107 0 q82 0 122 -14 q71 -24 98 -84 q21 -48 21 -103 q0 -61 -28 -109 q-39 -68 -117 -82 q-38 -6 -115 -6 l-335 0 Z" /><glyph glyph-name="T" unicode="T" d="M216 548 l-212 0 l0 119 l575 0 l0 -119 l-221 0 l0 -548 l-142 0 l0 548 Z" /><glyph glyph-name="U" unicode="U" d="M201 667 l0 -400 q0 -48 8 -74.5 q8 -26.5 27 -45.5 q42 -41 117 -41 q48 0 83.5 16.5 q35.5 16.5 49.5 44.5 q14 28 14 100 l0 400 l142 0 l0 -393 q0 -78 -16.5 -128.5 q-16.5 -50.5 -50.5 -81.5 q-79 -69 -224 -69 q-155 0 -226 68 q-37 35 -51 78.5 q-14 43.5 -14 122.5 l0 403 l141 0 Z" /><glyph glyph-name="V" unicode="V" d="M716 667 l-292 -667 l-142 0 l-281 667 l160 0 l196 -502 l199 502 l160 0 Z" /><glyph glyph-name="W" unicode="W" d="M160 667 l150 -502 l140 502 l158 0 l140 -502 l150 502 l146 0 l-215 -667 l-162 0 l-138 481 l-138 -481 l-162 0 l-216 667 l147 0 Z" /><glyph glyph-name="X" unicode="X" d="M231 337 l-219 330 l174 0 l131 -220 l142 220 l172 0 l-226 -330 l226 -337 l-167 0 l-147 229 l-144 -229 l-169 0 l227 337 Z" /><glyph glyph-name="Y" unicode="Y" d="M249 292 l-247 375 l166 0 l153 -261 l161 261 l169 0 l-260 -380 l0 -287 l-142 0 l0 292 Z" /><glyph glyph-name="Z" unicode="Z" d="M457 548 l-420 0 l0 119 l579 0 l0 -123 l-406 -425 l406 0 l0 -119 l-579 0 l0 115 l420 433 Z" /><glyph glyph-name="bracketleft" unicode="[" d="M318 758 l0 -106 l-34 0 q-57 0 -71 -13 q-14 -13 -14 -65 l0 -482 q0 -31 3 -44 q3 -13 11 -20 q15 -13 71 -13 l34 0 l0 -107 l-93 0 q-55 0 -81 6 q-26 6 -47 23 q-21 18 -29 43 q-8 25 -8 74 l0 558 q0 50 8 74.5 q8 24.5 29 42.5 q20 18 46.5 23.5 q26.5 5.5 81.5 5.5 l93 0 Z" /><glyph glyph-name="backslash" unicode="\" d="M450 -92 l-491 850 l125 0 l491 -850 l-125 0 Z" /><glyph glyph-name="bracketright" unicode="]" d="M33 758 l93 0 q55 0 81 -6 q26 -6 46 -23 q22 -18 30 -43 q8 -25 8 -74 l0 -558 q0 -49 -8 -74 q-8 -25 -30 -43 q-20 -17 -46 -23 q-26 -6 -81 -6 l-93 0 l0 107 l34 0 q57 0 71 13 q14 13 14 64 l0 482 q0 31 -3 44.5 q-3 13.5 -12 20.5 q-15 13 -70 13 l-34 0 l0 106 Z" /><glyph glyph-name="asciicircum" unicode="^" d="M151 349 l-137 0 l151 321 l171 0 l150 -321 l-136 0 l-100 217 l-99 -217 Z" /><glyph glyph-name="underscore" unicode="_" d="M0 -39 l500 0 l0 -109 l-500 0 l0 109 Z" /><glyph glyph-name="grave" unicode="`" d="M96 675 l118 0 l92 -131 l-86 0 l-124 131 Z" /><glyph glyph-name="a" unicode="a" d="M401 296 q0 51 -20.5 69 q-20.5 18 -81.5 18 l-226 0 l0 104 l226 0 q61 0 84 -2.5 q23 -2.5 47 -9.5 q111 -42 105 -201 l0 -274 l-282 0 q-76 0 -105 4.5 q-29 4.5 -51 18.5 q-59 40 -59 121 q0 49 23.5 87.5 q23.5 38.5 62.5 52.5 q34 12 113 12 l164 0 ZM401 192 l-154 0 l-23 0 q-23 0 -36.5 -12 q-13.5 -12 -13.5 -33 q0 -23 16.5 -33 q16.5 -10 56.5 -10 l154 0 l0 88 Z" /><glyph glyph-name="b" unicode="b" d="M199 487 l118 0 q78 0 127 -24 q67 -33 97 -101 q21 -51 21 -112 q0 -148 -107 -214 q-34 -21 -70 -28.5 q-36 -7.5 -102 -7.5 l-218 0 l0 667 l134 0 l0 -180 ZM199 383 l0 -279 l99 0 q63 0 95 39 q32 42 32 103 q0 137 -127 137 l-99 0 Z" /><glyph glyph-name="c" unicode="c" d="M472 487 l0 -104 l-160 0 q-81 0 -112 -36 q-30 -34 -30 -104 q0 -78 49 -114 q20 -14 43.5 -19.5 q23.5 -5.5 65.5 -5.5 l144 0 l0 -104 l-183 0 q-74 0 -117 15 q-43 15 -76 52 q-63 70 -63 178 q0 130 75 194 q30 26 72 37 q42 11 109 11 l183 0 Z" /><glyph glyph-name="d" unicode="d" d="M392 487 l0 180 l133 0 l0 -667 l-230 0 q-70 0 -106 11 q-85 27 -127 106 q-29 53 -29 130 q0 125 84 194 q55 46 149 46 l126 0 ZM392 104 l0 279 l-97 0 q-64 0 -97 -43 q-29 -36 -29 -93 q0 -83 48 -119 q33 -24 78 -24 l97 0 Z" /><glyph glyph-name="e" unicode="e" d="M463 296 l0 -104 l-282 0 q4 -48 31 -68 q27 -20 88 -20 l163 0 l0 -104 l-178 0 q-58 0 -94.5 10.5 q-36.5 10.5 -68.5 34.5 q-89 69 -89 205 q0 88 47 154 q32 45 77 64 q45 19 118 19 l188 0 l0 -104 l-178 0 q-55 0 -77 -18.5 q-22 -18.5 -27 -68.5 l282 0 Z" /><glyph glyph-name="f" unicode="f" d="M105 383 l-87 0 l0 104 l87 0 l0 29 q0 79 33.5 115 q33.5 36 108.5 36 l117 0 l0 -104 l-68 0 q-58 2 -57 -54 l0 -22 l126 0 l0 -104 l-126 0 l0 -383 l-134 0 l0 383 Z" /><glyph glyph-name="g" unicode="g" d="M532 487 l0 -484 q0 -41 -9.5 -73 q-9.5 -32 -27.5 -54 q-23 -28 -55.5 -38.5 q-32.5 -10.5 -94.5 -10.5 l-267 0 l0 104 l249 0 q44 0 57.5 13.5 q13.5 13.5 13.5 55.5 l-123 0 q-59 0 -97.5 12.5 q-38.5 12.5 -69.5 41.5 q-73 69 -73 190 q0 138 89 201 q32 23 67.5 32.5 q35.5 9.5 90.5 9.5 l250 0 ZM398 383 l-111 0 q-116 0 -116 -140 q0 -68 31.5 -103.5 q31.5 -35.5 91.5 -35.5 l104 0 l0 279 Z" /><glyph glyph-name="h" unicode="h" d="M199 667 l0 -180 l137 0 q61 0 95.5 -9.5 q34.5 -9.5 58.5 -33.5 q46 -42 46 -141 l0 -303 l-134 0 l0 277 q0 39 -3.5 55.5 q-3.5 16.5 -14.5 28.5 q-20 21 -76 22 l-109 0 l0 -383 l-134 0 l0 667 l134 0 Z" /><glyph glyph-name="i" unicode="i" d="M65 487 l134 0 l0 -487 l-134 0 l0 487 ZM65 537 l0 130 l134 0 l0 -130 l-134 0 Z" /><glyph glyph-name="j" unicode="j" d="M232 487 l0 -448 q0 -70 -13 -109.5 q-13 -39.5 -45 -64.5 q-44 -35 -138 -38 l-59 0 l0 101 l34 0 q58 1 74 22 q8 10 11 25.5 q3 15.5 3 52.5 l0 459 l133 0 ZM99 541 l0 126 l133 0 l0 -126 l-133 0 Z" /><glyph glyph-name="k" unicode="k" d="M199 667 l0 -373 l179 193 l150 0 l-190 -193 l36 0 q70 0 97 -41 q27 -41 27 -145 l0 -108 l-134 0 l0 114 q0 46 -15 61.5 q-15 15.5 -59 15.5 l-91 0 l0 -191 l-134 0 l0 667 l134 0 Z" /><glyph glyph-name="l" unicode="l" d="M199 0 l-134 0 l0 667 l134 0 l0 -667 Z" /><glyph glyph-name="m" unicode="m" d="M65 487 l492 0 q67 0 102 -10 q35 -10 59 -35 q44 -48 44 -132 l0 -310 l-134 0 l0 289 q0 35 -3 49 q-3 14 -14 25 q-21 20 -63 20 l-71 0 l0 -383 l-134 0 l0 383 l-144 0 l0 -383 l-134 0 l0 487 Z" /><glyph glyph-name="n" unicode="n" d="M65 487 l258 0 q58 0 88.5 -8.5 q30.5 -8.5 55.5 -30.5 q51 -47 51 -148 l0 -300 l-134 0 l0 315 q0 36 -16 52 q-16 16 -53 16 l-116 0 l0 -383 l-134 0 l0 487 Z" /><glyph glyph-name="o" unicode="o" d="M290 494 q135 0 199 -78 q59 -71 59 -179 q0 -114 -74 -182 q-68 -62 -186 -62 q-122 0 -191 70 q-64 63 -64 184 q0 102 61 170 q68 76 196 77 ZM291 392 q-121 0 -121 -150 q0 -61 20 -93 q33 -54 102 -54 q119 0 119 149 q0 146 -120 148 Z" /><glyph glyph-name="p" unicode="p" d="M65 487 l234 0 q68 0 103 -8.5 q35 -8.5 67 -33.5 q87 -68 87 -209 q0 -107 -64 -173 q-32 -33 -73.5 -48 q-41.5 -15 -101.5 -15 l-118 0 l0 -183 l-134 0 l0 670 ZM199 383 l0 -279 l82 0 q65 0 95 28 q42 37 42 114 q0 66 -33 101.5 q-33 35.5 -95 35.5 l-91 0 Z" /><glyph glyph-name="q" unicode="q" d="M530 487 l0 -670 l-134 0 l0 183 l-128 0 q-112 0 -172 65 q-63 68 -63 173 q0 139 88 207 q31 25 66 33.5 q35 8.5 103 8.5 l240 0 ZM396 383 l-97 0 q-62 0 -95 -35.5 q-33 -35.5 -33 -103.5 q0 -69 34 -104.5 q34 -35.5 99 -35.5 l92 0 l0 279 Z" /><glyph glyph-name="r" unicode="r" d="M65 487 l198 0 q61 0 94.5 -8.5 q33.5 -8.5 55.5 -28.5 q22 -20 31 -50 q9 -30 9 -86 l0 -47 l-129 0 l0 26 q0 52 -18 71 q-18 19 -69 19 l-38 0 l0 -383 l-134 0 l0 487 Z" /><glyph glyph-name="s" unicode="s" d="M488 487 l0 -104 l-237 0 q-41 0 -52 -4 q-23 -8 -23 -39 q0 -26 22 -40 q12 -8 65 -8 l79 0 q76 0 120 -32 q49 -36 49 -106 q0 -53 -30 -97 q-22 -35 -53.5 -46 q-31.5 -11 -105.5 -11 l-277 0 l0 104 l239 0 q44 0 60 1 q36 4 36 41 q0 30 -24 41 q-12 6 -58 6 l-81 0 q-48 0 -73.5 6 q-25.5 6 -47.5 22 q-27 19 -42.5 52.5 q-15.5 33.5 -15.5 71.5 q0 73 53 116 q32 26 111 26 l286 0 Z" /><glyph glyph-name="t" unicode="t" d="M101 487 l0 180 l134 0 l0 -180 l124 0 l0 -104 l-124 0 l0 -177 q0 -62 11 -78 q17 -24 60 -24 l53 0 l0 -104 l-97 0 q-87 0 -124 42 q-37 42 -37 141 l0 200 l-85 0 l0 104 l85 0 Z" /><glyph glyph-name="u" unicode="u" d="M383 104 l0 383 l134 0 l0 -487 l-264 0 q-57 0 -88 8.5 q-31 8.5 -55 30.5 q-51 46 -51 149 l0 299 l133 0 l0 -313 q0 -33 17.5 -51.5 q17.5 -18.5 47.5 -18.5 l126 0 Z" /><glyph glyph-name="v" unicode="v" d="M276 152 l136 335 l142 0 l-210 -487 l-144 0 l-194 487 l146 0 l124 -335 Z" /><glyph glyph-name="w" unicode="w" d="M344 104 l0 383 l134 0 l0 -383 l144 0 l0 383 l133 0 l0 -487 l-492 0 q-67 0 -102 10 q-35 10 -58 35 q-44 48 -44 132 l0 310 l133 0 l0 -289 q0 -35 3.5 -49 q3.5 -14 13.5 -25 q21 -20 63 -20 l72 0 Z" /><glyph glyph-name="x" unicode="x" d="M186 241 l-176 246 l150 0 l103 -144 l99 144 l158 0 l-182 -246 l182 -241 l-158 0 l-99 139 l-103 -139 l-157 0 l183 241 Z" /><glyph glyph-name="y" unicode="y" d="M384 104 l0 383 l134 0 l0 -477 q0 -95 -50 -139 q-50 -44 -159 -44 l-239 0 l0 104 l239 0 q43 0 56 9 q10 6 13 15.5 q3 9.5 6 44.5 l-119 0 q-206 -5 -195 215 l0 272 l134 0 l0 -259 q0 -76 13.5 -100 q13.5 -24 56.5 -24 l110 0 Z" /><glyph glyph-name="z" unicode="z" d="M312 383 l-282 0 l0 104 l459 0 l0 -101 l-282 -282 l282 0 l0 -104 l-459 0 l0 101 l282 282 Z" /><glyph glyph-name="braceleft" unicode="{" d="M167 333 q33 -18 46.5 -46 q13.5 -28 13.5 -78 l0 -98 q0 -51 1.5 -62.5 q1.5 -11.5 9.5 -19.5 q12 -14 50 -14 l58 0 l0 -107 l-68 0 q-69 0 -98.5 6.5 q-29.5 6.5 -53.5 27.5 q-37 32 -38 110 l0 145 q0 44 -10.5 64 q-10.5 20 -37.5 26 l0 92 q27 7 37.5 26.5 q10.5 19.5 10.5 63.5 l0 145 q1 85 45 116 q23 17 49.5 22.5 q26.5 5.5 79.5 5.5 l84 0 l0 -106 l-58 0 q-39 0 -51 -15 q-7 -9 -8.5 -20.5 q-1.5 -11.5 -1.5 -60.5 l0 -99 q0 -50 -13 -77 q-13 -27 -47 -47 Z" /><glyph glyph-name="bar" unicode="|" d="M172 667 l156 0 l0 -834 l-156 0 l0 834 Z" /><glyph glyph-name="braceright" unicode="}" d="M212 333 q-34 20 -47 47 q-13 27 -13 77 l0 99 q0 50 -1.5 61 q-1.5 11 -8.5 20 q-12 15 -51 15 l-58 0 l0 106 l84 0 q56 0 84.5 -7 q28.5 -7 51.5 -26 q37 -32 38 -111 l0 -145 q0 -44 10.5 -63.5 q10.5 -19.5 37.5 -26.5 l0 -92 q-27 -6 -37.5 -26 q-10.5 -20 -10.5 -64 l0 -145 q-1 -84 -45 -115 q-24 -18 -52 -23.5 q-28 -5.5 -93 -5.5 l-68 0 l0 107 l58 0 q38 0 50 14 q7 8 9 19.5 q2 11.5 2 62.5 l0 98 q0 50 13.5 78 q13.5 28 46.5 46 Z" /><glyph glyph-name="asciitilde" unicode="~" d="M167 550 l-75 63 q55 137 150 137 q33 0 112 -33 q40 -17 52 -21 q12 -4 24 -4 q38 0 70 61 l76 -62 q-26 -63 -54 -93 q-41 -43 -104 -43 q-20 0 -38.5 5.5 q-18.5 5.5 -71.5 28.5 q-50 22 -73 22 q-36 0 -68 -61 Z" /><glyph glyph-name="uni2103" unicode="&#x2103;" d="M824 660 l31 0 l0 -211 l-31 0 l0 71 q-16 74 -88 121 q-72 47 -165.5 31 q-93.5 -16 -148.5 -96 q-55 -80 -53 -216.5 q2 -136.5 53 -215 q51 -78.5 133 -92 q82 -13.5 152 18 q70 31.5 107.5 76 q37.5 44.5 43 33 q5.5 -11.5 -31.5 -60.5 q-37 -49 -111 -88 q-74 -39 -172 -27 q-98 12 -166 98 q-68 86 -76 234 q-8 148 56.5 244 q64.5 96 142.5 119.5 q78 23.5 142.5 9.5 q64.5 -14 109.5 -41 q45 -27 72 -55 l0 47 ZM137 699 q27 23 50.5 29 q23.5 6 53 -3.5 q29.5 -9.5 43 -37 q13.5 -27.5 7.5 -62.5 q-6 -35 -31.5 -54.5 q-25.5 -19.5 -60.5 -17.5 q-35 2 -58.5 23.5 q-23.5 21.5 -25 60.5 q-1.5 39 21.5 62 ZM234 590 q23 16 21.5 55 q-1.5 39 -27 50.5 q-25.5 11.5 -53 -8 q-27.5 -19.5 -23.5 -54.5 q4 -35 31.5 -45 q27.5 -10 50.5 2 Z" /><glyph glyph-name="uni4E2D" unicode="&#x4e2d;" d="M527 719 l0 -60 l370 0 l0 -77 l0 -16 l0 -349 q0 -40 -28 -68 q-28 -28 -68 -28 l-274 0 l0 -119 l-134 0 l0 119 l-371 0 l0 9 l0 84 l0 352 l0 16 l0 77 l371 0 l0 60 l134 0 ZM393 214 l0 352 l-237 0 l0 -352 l237 0 ZM527 566 l0 -352 l214 0 q9 0 15.5 6.5 q6.5 6.5 6.5 15.5 l0 330 l-236 0 Z" /><glyph glyph-name="uni4E91" unicode="&#x4e91;" d="M227 375 l-205 0 l0 103 l875 0 l0 -103 l-522 0 l-119 -252 l436 0 l-66 134 l146 0 l125 -256 l-145 0 l-10 19 l-534 0 l0 0 l-149 0 l168 355 ZM81 719 l757 0 l0 -103 l-757 0 l0 103 Z" /><glyph glyph-name="uni4EA4" unicode="&#x4ea4;" d="M45 656 l347 0 l-29 65 l139 0 l29 -65 l343 0 l0 -99 l-829 0 l0 99 ZM899 0 q-122 14 -232.5 49 q-110.5 35 -207.5 83 q-96 -48 -206.5 -83 q-110.5 -35 -232.5 -49 l0 105 q93 16 171.5 40 q78.5 24 147.5 53 q-48 29 -89.5 59 q-41.5 30 -75.5 59 l-5 -10 l-145 0 l98 213 l147 0 l-64 -137 l72 0 q35 -29 80.5 -61 q45.5 -32 101.5 -64 q57 32 102.5 64 q45.5 32 80.5 61 l72 0 l-64 137 l147 0 l98 -213 l-145 0 l-5 10 q-34 -29 -75.5 -59 q-41.5 -30 -89.5 -59 q69 -29 147.5 -53 q78.5 -24 171.5 -40 l0 -105 Z" /><glyph glyph-name="uni516C" unicode="&#x516c;" d="M699 720 l198 -316 l-151 0 l-198 316 l151 0 ZM171 404 l-151 0 l186 316 l151 0 l-186 -316 ZM738 328 l161 -327 l-157 0 l-8 17 l-650 0 l-61 0 l257 436 l163 0 l-210 -339 l453 0 l-106 213 l158 0 Z" /><glyph glyph-name="uni53E3" unicode="&#x53e3;" d="M156 25 l-134 0 l0 1 l0 93 l0 484 l0 35 l0 58 l875 0 l0 -57 l0 -36 l0 -481 q0 -40 -28 -68 q-28 -28 -68 -28 l-645 0 l0 -1 ZM156 119 l580 0 q9 0 15.5 6.5 q6.5 6.5 6.5 15.5 l0 462 l-602 0 l0 -484 Z" /><glyph glyph-name="uni591A" unicode="&#x591a;" d="M18 227 l59 132 l-50 0 l38 86 l120 0 l-89 113 l160 0 l90 -113 l281 0 l57 143 l-666 0 l59 134 l148 0 l-15 -35 l692 0 l-164 -328 l-68 0 l-77 0 l-368 0 l-15 -33 l692 0 l-164 -328 l-68 0 l0 0 l-643 0 l38 87 l120 0 l-89 112 l160 0 l90 -112 l294 0 l77 142 l-699 0 Z" /><glyph glyph-name="uni5927" unicode="&#x5927;" d="M363 454 l-344 0 l0 103 l390 0 l0 162 l134 0 l0 -162 l351 0 l0 -103 l-365 0 l-49 -65 l121 0 l299 -386 l-162 0 l-279 359 l-272 -360 l-167 0 l343 452 Z" /><glyph glyph-name="uni5C0F" unicode="&#x5c0f;" d="M168 90 l-135 0 l111 517 l134 0 l-110 -517 ZM752 90 l-111 517 l134 0 l111 -517 l-134 0 ZM272 7 l34 93 l61 0 q9 0 15.5 6.5 q6.5 6.5 6.5 16.5 l0 590 l139 0 l0 -617 q0 -37 -26 -63 q-26 -26 -63 -26 l-167 0 Z" /><glyph glyph-name="uni5C4F" unicode="&#x5c4f;" d="M300 224 l9 76 l-70 0 l0 99 l95 0 l-23 51 l145 0 l23 -51 l164 0 l23 51 l145 0 l-23 -51 l95 0 l0 -99 l-63 0 l0 -76 l73 0 l0 -98 l-73 0 l0 -126 l-139 0 l0 126 l-254 0 l-16 -126 l-138 0 l15 126 l-59 0 l0 98 l71 0 ZM439 224 l242 0 l0 76 l-233 0 l-9 -76 ZM70 721 l825 0 l0 -140 q0 -23 -8.5 -43 q-8.5 -20 -23.5 -35 q-15 -15 -35 -23.5 q-20 -8.5 -43 -8.5 l-577 0 l0 -370 l-45 -101 l-139 0 l46 101 l0 620 ZM208 552 l517 0 q13 0 22.5 9 q9.5 9 9.5 22 l0 58 l-549 0 l0 -89 Z" /><glyph glyph-name="uni5E02" unicode="&#x5e02;" d="M510 549 l0 -91 l249 0 l30 0 q19 0 36.5 -7.5 q17.5 -7.5 30 -20 q12.5 -12.5 20 -30 q7.5 -17.5 7.5 -36.5 l0 -228 l0 -23 q0 -31 -21.5 -53 q-21.5 -22 -52.5 -22 l-144 0 l45 98 l28 0 q9 0 15 6.5 q6 6.5 6 14.5 l0 172 q0 14 -9 23 q-9 9 -22 9 l-218 0 l0 -361 l-124 0 l0 361 l-211 0 l0 -323 l-124 0 l0 420 l108 0 l16 0 l211 0 l0 91 l-354 0 l0 98 l353 0 l-23 74 l124 0 l23 -74 l379 0 l0 -98 l-378 0 Z" /><glyph glyph-name="uni603B" unicode="&#x603b;" d="M312 636 l299 0 l31 84 l165 0 l-31 -84 l113 0 l0 -258 q0 -23 -8.5 -42.5 q-8.5 -19.5 -23.5 -34.5 q-15 -15 -35 -23.5 q-20 -8.5 -43 -8.5 l-741 0 l0 367 l109 0 l-31 84 l165 0 l31 -84 ZM751 538 l-575 0 l0 -172 l544 0 q13 0 22 9 q9 9 9 23 l0 140 ZM160 1 l-131 0 l15 200 l131 0 l-15 -200 ZM759 1 l-37 211 l130 0 l38 -211 l-131 0 ZM623 118 l-130 0 l-47 127 l131 0 l46 -127 ZM343 216 l0 -84 q0 -14 9 -23 q9 -9 22 -9 l348 0 l0 -99 l-408 0 q-23 0 -42.5 8.5 q-19.5 8.5 -34.5 23.5 q-15 15 -23.5 35 q-8.5 20 -8.5 43 l0 105 l138 0 Z" /><glyph glyph-name="uni6167" unicode="&#x6167;" d="M870 268 q-2 -38 -29 -64 q-27 -26 -65 -26 l-724 0 l0 53 l667 0 q16 0 16 16 l0 21 l-683 0 l0 54 l683 0 l0 35 l-683 0 l0 62 l818 0 l0 -4 l0 -58 l0 -35 l0 -50 l0 -4 ZM167 721 l135 0 l0 -23 l137 0 l0 -53 l-137 0 l0 -35 l137 0 l0 -53 l-137 0 l0 -35 l137 0 l0 -53 l-137 0 l0 -25 l-135 0 l0 25 l-137 0 l0 53 l137 0 l0 35 l-137 0 l0 53 l137 0 l0 35 l-137 0 l0 53 l137 0 l0 23 ZM754 721 l0 -23 l137 0 l0 -53 l-137 0 l0 -35 l137 0 l0 -53 l-137 0 l0 -35 l137 0 l0 -53 l-137 0 l0 -25 l-135 0 l0 25 l-137 0 l0 53 l137 0 l0 35 l-137 0 l0 53 l137 0 l0 35 l-137 0 l0 53 l137 0 l0 23 l135 0 ZM21 -1 l33 133 l135 0 l-33 -133 l-135 0 ZM866 132 l32 -133 l-132 0 l-32 133 l132 0 ZM628 80 l-142 0 l-26 70 l142 0 l26 -70 ZM368 72 q0 -11 5.5 -12.5 q5.5 -1.5 9.5 -1.5 l351 0 l-23 -59 l-426 0 q-17 0 -29 5.5 q-12 5.5 -20 14.5 q-8 9 -11.5 19 q-3.5 10 -3.5 19 l0 93 l147 0 l0 -78 Z" /><glyph glyph-name="uni6674" unicode="&#x6674;" d="M63 720 l322 0 l0 -613 q0 -25 -9 -43 q-7 -18 -22 -33 q-14 -14 -34 -24 q-20 -8 -41 -8 l-217 0 l0 722 l1 -1 ZM187 410 l74 0 l0 215 l-74 0 l0 -215 ZM187 99 l47 0 q11 0 18 8 q9 8 9 19 l0 186 l-74 0 l0 -213 ZM750 631 l0 -35 l188 0 l0 -70 l-188 0 l0 -37 l188 0 l0 -70 l-514 0 l0 70 l189 0 l0 37 l-189 0 l0 70 l189 0 l0 35 l-189 0 l0 71 l189 0 l0 18 l137 0 l0 -18 l188 0 l0 -71 l-188 0 ZM938 107 q0 -24 -9 -43 q-7 -17 -21 -33 q-13 -13 -35 -24 q-20 -8 -41 -8 l-104 0 l32 74 l18 0 q11 0 18 8 q8 7 8 18 l-242 0 l0 -100 l-138 0 l0 388 l443 0 q30 0 50.5 -21 q20.5 -21 20.5 -50 l0 -209 ZM779 317 l-217 0 l0 -38 l243 0 l0 18 q0 15 -7 17.5 q-7 2.5 -19 2.5 ZM805 209 l-243 0 l0 -40 l243 0 l0 40 Z" /><glyph glyph-name="uni667A" unicode="&#x667a;" d="M33 0 l0 87 l0 40 l0 68 l0 40 l0 79 l0 10 l709 0 l145 0 l0 -89 l0 -40 l0 -64 l0 -4 q-1 -27 -9.5 -50 q-8.5 -23 -23.5 -40 q-15 -17 -35 -27 q-20 -10 -42 -10 l-602 0 l-142 0 ZM175 195 l567 0 l0 40 l-567 0 l0 -40 ZM175 87 l535 0 q14 0 23 11 q9 11 9 27 l0 2 l-567 0 l0 -40 ZM502 720 l397 0 l0 -9 l0 -90 l0 -162 q0 -23 -8.5 -43 q-8.5 -20 -23.5 -35 q-15 -15 -35 -23.5 q-20 -8.5 -43 -8.5 l-287 0 l0 39 l0 60 l0 173 l0 90 l0 9 ZM760 621 l-119 0 l0 -173 l88 0 q13 0 22 9 q9 9 9 22 l0 142 ZM23 349 l118 102 l-120 0 l0 99 l172 0 l0 36 l-34 0 l-74 0 l-64 0 l47 134 l138 0 l-12 -35 l262 0 l0 -99 l-124 0 l0 -36 l130 0 l0 -99 l-74 0 l87 -102 l-139 0 l-64 76 l-88 -76 l-161 0 Z" /><glyph glyph-name="uni66B4" unicode="&#x66b4;" d="M391 203 l136 0 l0 -94 q0 -23 -8.5 -43 q-8.5 -20 -23.5 -34.5 q-15 -14.5 -35 -23 q-20 -8.5 -43 -8.5 l-92 0 l26 69 l8 0 q14 0 23 9 q9 9 9 22 l0 103 ZM703 306 l196 0 l0 -73 l-177 0 l177 -75 l-196 0 l-176 75 l-134 0 l-177 -75 l-195 0 l176 75 l-176 0 l0 73 l176 0 l0 29 l-147 0 l0 74 l147 0 l0 28 l-127 0 l0 74 l0 29 l0 73 l0 24 l0 61 l0 22 l780 0 l0 -4 l0 -79 l0 -24 l0 -73 l0 -9 q0 -20 -7.5 -37 q-7.5 -17 -20 -29.5 q-12.5 -12.5 -30 -20 q-17.5 -7.5 -36.5 -7.5 l-53 0 l0 -28 l166 0 l0 -74 l-166 0 l0 -29 ZM205 613 l510 0 l0 24 l-510 0 l0 -24 ZM205 511 l494 0 q16 0 16 16 l0 13 l-510 0 l0 -29 ZM333 409 l234 0 l0 28 l-234 0 l0 -28 ZM567 306 l0 29 l-234 0 l0 -29 l234 0 ZM810 88 l-188 0 l36 49 l188 0 l-36 -49 ZM785 67 l114 -67 l-196 0 l-118 67 l200 0 ZM298 88 l-188 0 l-37 49 l188 0 l37 -49 ZM21 0 l114 67 l199 0 l-118 -67 l-195 0 Z" /><glyph glyph-name="uni89C8" unicode="&#x89c8;" d="M29 706 l133 0 l0 -228 l-133 0 l0 228 ZM360 721 l0 -249 l-144 0 l0 249 l144 0 ZM593 721 l-6 -24 l290 0 l0 -90 l-43 0 l58 -138 l-143 0 l-58 138 l-130 0 l-40 -141 l-143 0 l72 255 l143 0 ZM624 170 l0 -68 q0 -11 8 -19 q8 -8 19 -8 l200 0 l33 -74 l-295 0 q-20 0 -37 7.5 q-17 7.5 -29.5 20 q-12.5 12.5 -20 29.5 q-7.5 17 -7.5 37 l0 75 l129 0 ZM27 -1 l321 202 l0 118 l138 0 l0 -155 l-261 -165 l-198 0 ZM43 438 l727 0 q19 0 36 -7 q17 -7 29.5 -19.5 q12.5 -12.5 19.5 -29.5 q7 -17 7 -36 l0 -209 l-130 0 l0 192 q0 11 -7.5 18.5 q-7.5 7.5 -18.5 7.5 l-521 0 l0 -218 l-142 0 l0 301 Z" /><glyph glyph-name="uni8DEF" unicode="&#x8def;" d="M401 261 l498 0 l0 -146 q0 -23 -9 -44 q-9 -21 -24 -36.5 q-15 -15.5 -35 -25 q-20 -9.5 -42 -9.5 l-388 0 l0 261 ZM536 79 l196 0 q13 0 22 12 q9 12 9 26 l0 60 l-227 0 l0 -98 ZM899 584 q-6 -50 -37.5 -93.5 q-31.5 -43.5 -81.5 -78.5 q31 -7 61.5 -11.5 q30.5 -4.5 58.5 -6.5 l0 -98 q-63 1 -127 13 q-64 12 -124 35 q-59 -23 -122 -35 q-63 -12 -126 -13 l0 98 q28 2 58 6.5 q30 4.5 61 12.5 q-40 29 -68 63 q-28 34 -42 73 l138 0 q19 -29 45 -51 q26 -22 56 -39 q42 22 73.5 52.5 q31.5 30.5 48.5 72.5 l-160 0 l-213 0 l71 136 l162 0 l-30 -54 l299 0 l0 -82 l-1 0 ZM381 545 q0 -22 -8.5 -41.5 q-8.5 -19.5 -23 -34.5 q-14.5 -15 -34 -24 q-19.5 -9 -41.5 -10 l0 -87 l107 0 l0 -99 l-107 0 l0 -138 l98 9 l0 -89 l-352 -31 l0 88 l18 2 l0 314 l100 0 l0 -305 l22 2 l0 334 l-128 0 l0 266 l349 0 l0 -156 ZM151 515 l80 0 q13 0 22 9 q9 9 9 23 l0 71 l-111 0 l0 -103 Z" /><glyph glyph-name="uni9633" unicode="&#x9633;" d="M564 0 l-107 0 l0 721 l442 0 l0 -612 q0 -23 -8.5 -42.5 q-8.5 -19.5 -23.5 -34.5 q-15 -15 -35 -23.5 q-20 -8.5 -43 -8.5 l-201 0 l-24 0 ZM737 84 q13 0 22 9 q9 9 9 22 l0 203 l-180 0 l0 -234 l149 0 ZM588 637 l0 -235 l180 0 l0 235 l-180 0 ZM151 0 l-130 0 l0 721 l81 0 l49 0 l265 0 l-83 -317 l83 0 l-117 -363 l-130 0 l93 281 l-89 0 l83 301 l-5 0 l-100 0 l0 -623 Z" /><glyph glyph-name="uni9634" unicode="&#x9634;" d="M792 96 q14 0 23 10 q9 8 9 23 l0 99 l-221 0 l0 -132 l-33 -100 l-123 0 l32 100 l0 629 l376 0 q38 0 65 -27 q27 -27 27 -65 l0 -525 q0 -26 -8 -44 q-8 -18 -24 -36 q-16 -16 -36 -24 q-22 -8 -44 -8 l-123 0 l33 100 l47 0 ZM204 36 l95 285 l-90 0 l84 305 l-107 0 l0 -632 l-133 0 l0 733 l403 0 l-85 -323 l85 0 l-120 -368 l-132 0 ZM779 624 l-176 0 l0 -102 l221 0 l0 56 q0 19 -13.5 32.5 q-13.5 13.5 -31.5 13.5 ZM824 328 l0 92 l-221 0 l0 -92 l221 0 Z" /><glyph glyph-name="uni96E8" unicode="&#x96e8;" d="M582 624 l0 -71 l248 0 q25 0 43 -8 q22 -11 35 -24 q16 -16 24 -35 q5 -10 6.5 -21 q1.5 -11 1.5 -23 l0 -346 q0 -57 -33 -77.5 q-33 -20.5 -106 -20.5 l-66 0 l10 32 l-96 0 l-48 181 l44 0 l-44 185 l121 0 l47 -194 l-46 0 l34 -130 l8 24 l36 0 l0 327 q0 11 -9 22 q-8 8 -22 8 l-188 0 l0 -455 l-140 0 l0 455 l-244 0 l0 -455 l-139 0 l0 555 l383 0 l0 71 l-383 0 l0 99 l881 0 l0 -99 l-358 0 ZM411 202 l-44 0 l44 -172 l-120 0 l-47 181 l44 0 l-44 185 l121 0 l46 -194 Z" /><glyph glyph-name="uni96EA" unicode="&#x96ea;" d="M527 654 l0 -37 l265 0 q22 0 41 -8.5 q19 -8.5 33.5 -22.5 q14.5 -14 23 -33.5 q8.5 -19.5 8.5 -41.5 l0 -179 l-137 0 l0 192 q0 11 -7.5 19 q-7.5 8 -18.5 8 l-208 0 l0 -219 l-136 0 l0 219 l-234 0 l0 -219 l-136 0 l0 285 l370 0 l0 37 l-370 0 l0 66 l877 0 l0 -66 l-371 0 ZM898 108 q0 -22 -8.5 -41.5 q-8.5 -19.5 -23 -34 q-14.5 -14.5 -33.5 -23 q-19 -8.5 -41 -8.5 l-771 0 l0 66 l714 0 q11 0 18.5 8 q7.5 8 7.5 19 l0 20 l-740 0 l0 66 l740 0 l0 46 l-740 0 l0 66 l877 0 l0 -184 ZM379 433 l-59 0 l59 -83 l-129 0 l-66 94 l59 0 l-59 83 l129 0 l66 -94 ZM745 433 l-58 0 l58 -83 l-129 0 l-65 94 l58 0 l-58 83 l128 0 l66 -94 Z" /><glyph glyph-name="uni96FE" unicode="&#x96fe;" d="M863 351 q-42 -19 -84 -34 q-42 -15 -85 -28 q56 -4 108 -6 q52 -2 97 -2 l0 -63 q-96 0 -208 3 q-112 3 -233 20 q-118 -16 -229 -19.5 q-111 -3.5 -208 -3.5 l0 63 q51 0 103.5 0.5 q52.5 0.5 109.5 3.5 q-74 20 -143 48 l232 0 q36 -6 74 -11.5 q38 -5.5 77 -10.5 q47 8 97.5 17.5 q50.5 9.5 107.5 22.5 l-629 0 l51 81 l154 0 l-8 -12 l616 0 l0 -69 ZM21 720 l878 0 l0 -66 l-371 0 l0 -26 l242 0 q22 0 41.5 -8.5 q19.5 -8.5 33.5 -23 q14 -14.5 22.5 -34 q8.5 -19.5 8.5 -41.5 l0 -67 l-136 0 l0 81 q0 11 -8 18.5 q-8 7.5 -19 7.5 l-185 0 l0 -107 l-137 0 l0 107 l-212 0 l0 -107 l-137 0 l0 174 l349 0 l0 26 l-370 0 l0 66 ZM188 507 l45 0 l-45 36 l129 0 l66 -53 l-45 0 l45 -36 l-129 0 l-66 53 ZM536 507 l45 0 l-45 36 l129 0 l66 -53 l-45 0 l45 -36 l-129 0 l-66 53 ZM383 207 l-15 -28 l497 0 l0 -6 l0 -64 l0 -32 q0 -16 -6 -30 q-6 -14 -16.5 -24.5 q-10.5 -10.5 -25 -16.5 q-14.5 -6 -30.5 -6 l-257 0 l31 61 l152 0 q7 0 11.5 4.5 q4.5 4.5 4.5 10.5 l0 33 l-398 0 l-59 -109 l-161 0 l58 109 l-120 0 l0 70 l158 0 l15 28 l161 0 Z" /><glyph glyph-name="uni98CE" unicode="&#x98ce;" d="M787 1 q-37 0 -63 26 q-26 26 -26 63 l0 531 l-490 0 l0 -511 l-49 -108 l-137 0 l48 108 l0 609 l628 0 l78 0 l56 0 l0 -603 q0 -9 7 -15.5 q7 -6.5 16 -6.5 l43 0 l-35 -93 l-76 0 ZM673 595 q-17 -69 -52 -136.5 q-35 -67.5 -83 -127.5 q55 -45 135 -75 l0 -125 q-60 11 -116 39.5 q-56 28.5 -107 70.5 q-51 -42 -107 -70.5 q-56 -28.5 -116 -39.5 l0 125 q79 30 135 75 q-48 60 -83 127.5 q-35 67.5 -52 136.5 l126 0 q22 -45 45 -88 q23 -43 52 -82 q29 39 52 82 q23 43 45 88 l126 0 Z" /></font>
</defs>
</svg>
