<?xml version="1.0" standalone="no"?><!DOCTYPE svg PUBLIC "-//W3C//DTD SVG 1.1//EN" "http://www.w3.org/Graphics/SVG/1.1/DTD/svg11.dtd"><svg t="1700556699603" class="icon" viewBox="0 0 1024 1024" version="1.1" xmlns="http://www.w3.org/2000/svg" p-id="4015" xmlns:xlink="http://www.w3.org/1999/xlink"><path d="M512 580.266667c-122.88 0-221.866667-98.986667-221.866667-221.866667S389.12 136.533333 512 136.533333s221.866667 98.986667 221.866667 221.866667S634.88 580.266667 512 580.266667z m0-409.6c-102.4 0-187.733333 85.333333-187.733333 187.733333S409.6 546.133333 512 546.133333s187.733333-85.333333 187.733333-187.733333S614.4 170.666667 512 170.666667z" fill="" p-id="4016"></path><path d="M512 921.6c-6.826667 0-13.653333-3.413333-17.066667-10.24l-68.266666-201.386667c-160.426667-37.546667-273.066667-184.32-273.066667-348.16C153.6 160.426667 314.026667 0 512 0s358.4 160.426667 358.4 358.4c0 163.84-116.053333 310.613333-273.066667 348.16l-68.266666 201.386667c-3.413333 10.24-10.24 13.653333-17.066667 13.653333z m0-887.466667c-177.493333 0-324.266667 146.773333-324.266667 324.266667 0 153.6 109.226667 286.72 256 317.44 6.826667 0 10.24 6.826667 13.653334 10.24l54.613333 163.84 54.613333-163.84c3.413333-6.826667 6.826667-10.24 13.653334-10.24 150.186667-30.72 256-163.84 256-317.44C836.266667 180.906667 689.493333 34.133333 512 34.133333z" fill="" p-id="4017"></path><path d="M512 1024c-177.493333 0-358.4-40.96-358.4-119.466667 0-64.853333 129.706667-102.4 252.586667-116.053333 10.24 0 17.066667 6.826667 17.066666 13.653333 0 10.24-6.826667 17.066667-13.653333 17.066667-153.6 13.653333-221.866667 54.613333-221.866667 81.92 0 34.133333 122.88 85.333333 324.266667 85.333333s324.266667-51.2 324.266667-85.333333c0-23.893333-68.266667-64.853333-221.866667-81.92-10.24 0-17.066667-10.24-13.653333-17.066667 0-10.24 10.24-17.066667 17.066666-13.653333 122.88 10.24 252.586667 47.786667 252.586667 116.053333 0 78.506667-180.906667 119.466667-358.4 119.466667z" fill="" p-id="4018"></path></svg>